# MagicaVoxel @ Ephtracy

# group
o a

# material
mtllib toy-store-1-a.mtl
usemtl palette

# normals
vn -1 0 0
vn 1 0 0
vn 0 -1 0
vn 0 1 0
vn 0 0 -1
vn 0 0 1

# texcoords
vt 0.111328 0.5
vt 0.970703 0.5

# verts
v 1.5 3.1 -5.5
v 1.5 3.2 -5.5
v 1.5 3.1 -4.9
v 1.5 3.2 -4.9
v 1.6 3.3 -5.3
v 1.6 4.1 -5.3
v 1.6 3.3 -5.1
v 1.6 4.1 -5.1
v 2.1 3.3 -5.3
v 2.1 3.6 -5.3
v 2.1 3.7 -5.3
v 2.1 3.9 -5.3
v 2.1 3.3 -5.1
v 2.1 3.6 -5.1
v 2.1 3.7 -5.1
v 2.1 3.9 -5.1
v 1.8 3.3 -5.3
v 1.8 3.6 -5.3
v 1.8 3.7 -5.3
v 1.8 3.9 -5.3
v 1.8 3.3 -5.1
v 1.8 3.6 -5.1
v 1.8 3.7 -5.1
v 1.8 3.9 -5.1
v 2.3 3.3 -5.3
v 2.3 4.1 -5.3
v 2.3 3.3 -5.1
v 2.3 4.1 -5.1
v 2.4 3.1 -5.5
v 2.4 3.2 -5.5
v 2.4 3.1 -4.9
v 2.4 3.2 -4.9
v 1.5 3.1 -5.5
v 1.5 3.1 -4.9
v 2.4 3.1 -5.5
v 2.4 3.1 -4.9
v 1.6 3.3 -5.3
v 1.6 3.3 -5.1
v 1.8 3.3 -5.3
v 1.8 3.3 -5.1
v 2.1 3.3 -5.3
v 2.1 3.3 -5.1
v 2.3 3.3 -5.3
v 2.3 3.3 -5.1
v 1.8 3.6 -5.3
v 1.8 3.6 -5.1
v 2.1 3.6 -5.3
v 2.1 3.6 -5.1
v 1.8 3.9 -5.3
v 1.8 3.9 -5.1
v 2.1 3.9 -5.3
v 2.1 3.9 -5.1
v 1.5 3.2 -5.5
v 1.5 3.2 -4.9
v 2.4 3.2 -5.5
v 2.4 3.2 -4.9
v 1.8 3.7 -5.3
v 1.8 3.7 -5.1
v 2.1 3.7 -5.3
v 2.1 3.7 -5.1
v 1.6 4.1 -5.3
v 1.6 4.1 -5.1
v 2.3 4.1 -5.3
v 2.3 4.1 -5.1
v 1.5 3.1 -5.5
v 2.4 3.1 -5.5
v 1.5 3.2 -5.5
v 2.4 3.2 -5.5
v 1.6 3.3 -5.3
v 1.8 3.3 -5.3
v 2.1 3.3 -5.3
v 2.3 3.3 -5.3
v 1.8 3.6 -5.3
v 2.1 3.6 -5.3
v 1.8 3.7 -5.3
v 2.1 3.7 -5.3
v 1.8 3.9 -5.3
v 2.1 3.9 -5.3
v 1.6 4.1 -5.3
v 2.3 4.1 -5.3
v 1.6 3.3 -5.1
v 1.8 3.3 -5.1
v 2.1 3.3 -5.1
v 2.3 3.3 -5.1
v 1.8 3.6 -5.1
v 2.1 3.6 -5.1
v 1.8 3.7 -5.1
v 2.1 3.7 -5.1
v 1.8 3.9 -5.1
v 2.1 3.9 -5.1
v 1.6 4.1 -5.1
v 2.3 4.1 -5.1
v 1.5 3.1 -4.9
v 2.4 3.1 -4.9
v 1.5 3.2 -4.9
v 2.4 3.2 -4.9

# faces
f 3/2/1 2/2/1 1/2/1
f 4/2/1 2/2/1 3/2/1
f 7/1/1 6/1/1 5/1/1
f 8/1/1 6/1/1 7/1/1
f 13/1/1 10/1/1 9/1/1
f 14/1/1 10/1/1 13/1/1
f 15/1/1 12/1/1 11/1/1
f 16/1/1 12/1/1 15/1/1
f 17/1/2 18/1/2 21/1/2
f 21/1/2 18/1/2 22/1/2
f 19/1/2 20/1/2 23/1/2
f 23/1/2 20/1/2 24/1/2
f 25/1/2 26/1/2 27/1/2
f 27/1/2 26/1/2 28/1/2
f 29/2/2 30/2/2 31/2/2
f 31/2/2 30/2/2 32/2/2
f 35/2/3 34/2/3 33/2/3
f 36/2/3 34/2/3 35/2/3
f 39/1/3 38/1/3 37/1/3
f 40/1/3 38/1/3 39/1/3
f 43/1/3 42/1/3 41/1/3
f 44/1/3 42/1/3 43/1/3
f 47/1/3 46/1/3 45/1/3
f 48/1/3 46/1/3 47/1/3
f 51/1/3 50/1/3 49/1/3
f 52/1/3 50/1/3 51/1/3
f 53/2/4 54/2/4 55/2/4
f 55/2/4 54/2/4 56/2/4
f 57/1/4 58/1/4 59/1/4
f 59/1/4 58/1/4 60/1/4
f 61/1/4 62/1/4 63/1/4
f 63/1/4 62/1/4 64/1/4
f 67/2/5 66/2/5 65/2/5
f 68/2/5 66/2/5 67/2/5
f 73/1/5 70/1/5 69/1/5
f 74/1/5 72/1/5 71/1/5
f 75/1/5 73/1/5 69/1/5
f 75/1/5 74/1/5 73/1/5
f 76/1/5 72/1/5 74/1/5
f 76/1/5 74/1/5 75/1/5
f 77/1/5 75/1/5 69/1/5
f 78/1/5 72/1/5 76/1/5
f 79/1/5 77/1/5 69/1/5
f 79/1/5 78/1/5 77/1/5
f 80/1/5 72/1/5 78/1/5
f 80/1/5 78/1/5 79/1/5
f 81/1/6 82/1/6 85/1/6
f 83/1/6 84/1/6 86/1/6
f 81/1/6 85/1/6 87/1/6
f 85/1/6 86/1/6 87/1/6
f 86/1/6 84/1/6 88/1/6
f 87/1/6 86/1/6 88/1/6
f 81/1/6 87/1/6 89/1/6
f 88/1/6 84/1/6 90/1/6
f 81/1/6 89/1/6 91/1/6
f 89/1/6 90/1/6 91/1/6
f 90/1/6 84/1/6 92/1/6
f 91/1/6 90/1/6 92/1/6
f 93/2/6 94/2/6 95/2/6
f 95/2/6 94/2/6 96/2/6
