# MagicaVoxel @ Ephtracy

# group
o toy1

# material
mtllib toy-store-9-toy1.mtl
usemtl palette

# normals
vn -1 0 0
vn 1 0 0
vn 0 0 1
vn 0 0 -1
vn 0 -1 0
vn 0 1 0

# texcoords
vt 0.888672 0.5
vt 0.892578 0.5
vt 0.958984 0.5
vt 0.962891 0.5

# verts
v -4.4 3.1 -4.8
v -4.4 3.1 -5.6
v -4.4 3.2 -4.8
v -4.4 3.2 -5.6
v -4.3 3.2 -4.9
v -4.3 3.2 -5.5
v -4.3 3.3 -4.9
v -4.3 3.3 -5.5
v -4.2 3.3 -5
v -4.2 3.3 -5.4
v -4.2 3.4 -5
v -4.2 3.4 -5.4
v -4.1 3.4 -5.1
v -4.1 3.4 -5.3
v -4.1 3.5 -5.1
v -4.1 3.5 -5.3
v -3.9 3.4 -5.1
v -3.9 3.4 -5.3
v -3.9 3.5 -5.1
v -3.9 3.5 -5.3
v -3.8 3.3 -5
v -3.8 3.3 -5.4
v -3.8 3.4 -5
v -3.8 3.4 -5.4
v -3.7 3.2 -4.9
v -3.7 3.2 -5.5
v -3.7 3.3 -4.9
v -3.7 3.3 -5.5
v -3.6 3.1 -4.8
v -3.6 3.1 -5.6
v -3.6 3.2 -4.8
v -3.6 3.2 -5.6
v -4.4 3.1 -4.8
v -4.4 3.2 -4.8
v -3.6 3.1 -4.8
v -3.6 3.2 -4.8
v -4.3 3.2 -4.9
v -4.3 3.3 -4.9
v -3.7 3.2 -4.9
v -3.7 3.3 -4.9
v -4.2 3.3 -5
v -4.2 3.4 -5
v -3.8 3.3 -5
v -3.8 3.4 -5
v -4.1 3.4 -5.1
v -4.1 3.5 -5.1
v -3.9 3.4 -5.1
v -3.9 3.5 -5.1
v -4.1 3.4 -5.3
v -4.1 3.5 -5.3
v -3.9 3.4 -5.3
v -3.9 3.5 -5.3
v -4.2 3.3 -5.4
v -4.2 3.4 -5.4
v -3.8 3.3 -5.4
v -3.8 3.4 -5.4
v -4.3 3.2 -5.5
v -4.3 3.3 -5.5
v -3.7 3.2 -5.5
v -3.7 3.3 -5.5
v -4.4 3.1 -5.6
v -4.4 3.2 -5.6
v -3.6 3.1 -5.6
v -3.6 3.2 -5.6
v -4.4 3.1 -4.8
v -3.6 3.1 -4.8
v -4.4 3.1 -5.6
v -3.6 3.1 -5.6
v -4.4 3.2 -4.8
v -3.6 3.2 -4.8
v -4.3 3.2 -4.9
v -3.7 3.2 -4.9
v -4.3 3.2 -5.5
v -3.7 3.2 -5.5
v -4.4 3.2 -5.6
v -3.6 3.2 -5.6
v -4.3 3.3 -4.9
v -3.7 3.3 -4.9
v -4.2 3.3 -5
v -3.8 3.3 -5
v -4.2 3.3 -5.4
v -3.8 3.3 -5.4
v -4.3 3.3 -5.5
v -3.7 3.3 -5.5
v -4.2 3.4 -5
v -3.8 3.4 -5
v -4.1 3.4 -5.1
v -3.9 3.4 -5.1
v -4.1 3.4 -5.3
v -3.9 3.4 -5.3
v -4.2 3.4 -5.4
v -3.8 3.4 -5.4
v -4.1 3.5 -5.1
v -3.9 3.5 -5.1
v -4.1 3.5 -5.3
v -3.9 3.5 -5.3

# faces
f 3/1/1 2/1/1 1/1/1
f 4/1/1 2/1/1 3/1/1
f 7/3/1 6/3/1 5/3/1
f 8/3/1 6/3/1 7/3/1
f 11/2/1 10/2/1 9/2/1
f 12/2/1 10/2/1 11/2/1
f 15/4/1 14/4/1 13/4/1
f 16/4/1 14/4/1 15/4/1
f 17/4/2 18/4/2 19/4/2
f 19/4/2 18/4/2 20/4/2
f 21/2/2 22/2/2 23/2/2
f 23/2/2 22/2/2 24/2/2
f 25/3/2 26/3/2 27/3/2
f 27/3/2 26/3/2 28/3/2
f 29/1/2 30/1/2 31/1/2
f 31/1/2 30/1/2 32/1/2
f 35/1/3 34/1/3 33/1/3
f 36/1/3 34/1/3 35/1/3
f 39/3/3 38/3/3 37/3/3
f 40/3/3 38/3/3 39/3/3
f 43/2/3 42/2/3 41/2/3
f 44/2/3 42/2/3 43/2/3
f 47/4/3 46/4/3 45/4/3
f 48/4/3 46/4/3 47/4/3
f 49/4/4 50/4/4 51/4/4
f 51/4/4 50/4/4 52/4/4
f 53/2/4 54/2/4 55/2/4
f 55/2/4 54/2/4 56/2/4
f 57/3/4 58/3/4 59/3/4
f 59/3/4 58/3/4 60/3/4
f 61/1/4 62/1/4 63/1/4
f 63/1/4 62/1/4 64/1/4
f 67/1/5 66/1/5 65/1/5
f 68/1/5 66/1/5 67/1/5
f 69/1/6 70/1/6 71/1/6
f 71/1/6 70/1/6 72/1/6
f 69/1/6 71/1/6 73/1/6
f 72/1/6 70/1/6 74/1/6
f 69/1/6 73/1/6 75/1/6
f 73/1/6 74/1/6 75/1/6
f 74/1/6 70/1/6 76/1/6
f 75/1/6 74/1/6 76/1/6
f 77/3/6 78/3/6 79/3/6
f 79/3/6 78/3/6 80/3/6
f 77/3/6 79/3/6 81/3/6
f 80/3/6 78/3/6 82/3/6
f 77/3/6 81/3/6 83/3/6
f 81/3/6 82/3/6 83/3/6
f 82/3/6 78/3/6 84/3/6
f 83/3/6 82/3/6 84/3/6
f 85/2/6 86/2/6 87/2/6
f 87/2/6 86/2/6 88/2/6
f 85/2/6 87/2/6 89/2/6
f 88/2/6 86/2/6 90/2/6
f 85/2/6 89/2/6 91/2/6
f 89/2/6 90/2/6 91/2/6
f 90/2/6 86/2/6 92/2/6
f 91/2/6 90/2/6 92/2/6
f 93/4/6 94/4/6 95/4/6
f 95/4/6 94/4/6 96/4/6
