# MagicaVoxel @ Ephtracy

# group
o elf

# material
mtllib toy-store-10-elf.mtl
usemtl palette

# normals
vn -1 0 0
vn 1 0 0
vn 0 0 1
vn 0 0 -1
vn 0 -1 0
vn 0 1 0

# texcoords
vt 0.0566406 0.5
vt 0.396484 0.5
vt 0.794922 0.5
vt 0.958984 0.5

# verts
v -2.7 3.5 -4.9
v -2.7 3.5 -5
v -2.7 3.6 -4.9
v -2.7 3.6 -5
v -2.6 3.7 -4.9
v -2.6 3.7 -5
v -2.6 3.8 -4.7
v -2.6 3.8 -4.9
v -2.6 3.8 -5
v -2.6 3.8 -5.1
v -2.6 3.9 -4.7
v -2.6 3.9 -5.1
v -2.5 3.1 -4.8
v -2.5 3.1 -5
v -2.5 3.2 -4.8
v -2.5 3.2 -4.9
v -2.5 3.2 -5
v -2.5 3.4 -4.9
v -2.5 3.4 -5
v -2.5 3.5 -4.9
v -2.5 3.5 -5
v -2.5 3.6 -4.8
v -2.5 3.6 -4.9
v -2.5 3.6 -5
v -2.5 3.7 -4.9
v -2.5 3.7 -5
v -2.5 3.8 -4.8
v -2.5 3.8 -4.9
v -2.5 3.9 -4.8
v -2.5 3.9 -5
v -2.5 4 -4.8
v -2.5 4 -5
v -2.4 4 -4.8
v -2.4 4 -5
v -2.4 4.1 -4.8
v -2.4 4.1 -5
v -2.3 3.1 -4.8
v -2.3 3.1 -5
v -2.3 3.2 -4.8
v -2.3 3.2 -4.9
v -2.3 3.2 -5
v -2.3 3.3 -4.9
v -2.3 3.3 -5
v -2.1 3.5 -5.2
v -2.1 3.5 -5.3
v -2.1 3.6 -5.2
v -2.1 3.6 -5.3
v -2 3.7 -5.2
v -2 3.7 -5.3
v -2 3.8 -5
v -2 3.8 -5.2
v -2 3.8 -5.3
v -2 3.8 -5.4
v -2 3.9 -5
v -2 3.9 -5.4
v -1.9 3.1 -5.1
v -1.9 3.1 -5.3
v -1.9 3.2 -5.1
v -1.9 3.2 -5.2
v -1.9 3.2 -5.3
v -1.9 3.4 -5.2
v -1.9 3.4 -5.3
v -1.9 3.5 -5.2
v -1.9 3.5 -5.3
v -1.9 3.6 -5.1
v -1.9 3.6 -5.2
v -1.9 3.6 -5.3
v -1.9 3.7 -5.2
v -1.9 3.7 -5.3
v -1.9 3.8 -5.1
v -1.9 3.8 -5.2
v -1.9 3.9 -5.1
v -1.9 3.9 -5.3
v -1.9 4 -5.1
v -1.9 4 -5.3
v -1.8 4 -5.1
v -1.8 4 -5.3
v -1.8 4.1 -5.1
v -1.8 4.1 -5.3
v -1.7 3.1 -5.1
v -1.7 3.1 -5.3
v -1.7 3.2 -5.1
v -1.7 3.2 -5.2
v -1.7 3.2 -5.3
v -1.7 3.3 -5.2
v -1.7 3.3 -5.3
v -2.4 3.1 -4.8
v -2.4 3.1 -5
v -2.4 3.2 -4.8
v -2.4 3.2 -4.9
v -2.4 3.2 -5
v -2.4 3.3 -4.9
v -2.4 3.3 -5
v -2.3 4 -4.8
v -2.3 4 -5
v -2.3 4.1 -4.8
v -2.3 4.1 -5
v -2.2 3.1 -4.8
v -2.2 3.1 -5
v -2.2 3.2 -4.8
v -2.2 3.2 -4.9
v -2.2 3.2 -5
v -2.2 3.4 -4.9
v -2.2 3.4 -5
v -2.2 3.5 -4.9
v -2.2 3.5 -5
v -2.2 3.6 -4.8
v -2.2 3.6 -4.9
v -2.2 3.6 -5
v -2.2 3.7 -4.9
v -2.2 3.7 -5
v -2.2 3.8 -4.8
v -2.2 3.8 -4.9
v -2.2 3.9 -4.8
v -2.2 3.9 -5
v -2.2 4 -4.8
v -2.2 4 -5
v -2.1 3.7 -4.9
v -2.1 3.7 -5
v -2.1 3.8 -4.7
v -2.1 3.8 -4.9
v -2.1 3.8 -5
v -2.1 3.8 -5.1
v -2.1 3.9 -4.7
v -2.1 3.9 -5.1
v -2 3.5 -4.9
v -2 3.5 -5
v -2 3.6 -4.9
v -2 3.6 -5
v -1.8 3.1 -5.1
v -1.8 3.1 -5.3
v -1.8 3.2 -5.1
v -1.8 3.2 -5.2
v -1.8 3.2 -5.3
v -1.8 3.3 -5.2
v -1.8 3.3 -5.3
v -1.7 4 -5.1
v -1.7 4 -5.3
v -1.7 4.1 -5.1
v -1.7 4.1 -5.3
v -1.6 3.1 -5.1
v -1.6 3.1 -5.3
v -1.6 3.2 -5.1
v -1.6 3.2 -5.2
v -1.6 3.2 -5.3
v -1.6 3.4 -5.2
v -1.6 3.4 -5.3
v -1.6 3.5 -5.2
v -1.6 3.5 -5.3
v -1.6 3.6 -5.1
v -1.6 3.6 -5.2
v -1.6 3.6 -5.3
v -1.6 3.7 -5.2
v -1.6 3.7 -5.3
v -1.6 3.8 -5.1
v -1.6 3.8 -5.2
v -1.6 3.9 -5.1
v -1.6 3.9 -5.3
v -1.6 4 -5.1
v -1.6 4 -5.3
v -1.5 3.7 -5.2
v -1.5 3.7 -5.3
v -1.5 3.8 -5
v -1.5 3.8 -5.2
v -1.5 3.8 -5.3
v -1.5 3.8 -5.4
v -1.5 3.9 -5
v -1.5 3.9 -5.4
v -1.4 3.5 -5.2
v -1.4 3.5 -5.3
v -1.4 3.6 -5.2
v -1.4 3.6 -5.3
v -2.6 3.8 -4.7
v -2.6 3.9 -4.7
v -2.1 3.8 -4.7
v -2.1 3.9 -4.7
v -2.5 3.1 -4.8
v -2.5 3.2 -4.8
v -2.5 3.6 -4.8
v -2.5 3.8 -4.8
v -2.5 3.9 -4.8
v -2.5 4 -4.8
v -2.4 3.1 -4.8
v -2.4 3.2 -4.8
v -2.4 4 -4.8
v -2.4 4.1 -4.8
v -2.3 3.1 -4.8
v -2.3 3.2 -4.8
v -2.3 4 -4.8
v -2.3 4.1 -4.8
v -2.2 3.1 -4.8
v -2.2 3.2 -4.8
v -2.2 3.6 -4.8
v -2.2 3.8 -4.8
v -2.2 3.9 -4.8
v -2.2 4 -4.8
v -2.7 3.5 -4.9
v -2.7 3.6 -4.9
v -2.6 3.5 -4.9
v -2.6 3.6 -4.9
v -2.6 3.7 -4.9
v -2.6 3.8 -4.9
v -2.5 3.2 -4.9
v -2.5 3.4 -4.9
v -2.5 3.5 -4.9
v -2.5 3.6 -4.9
v -2.5 3.7 -4.9
v -2.5 3.8 -4.9
v -2.4 3.2 -4.9
v -2.4 3.3 -4.9
v -2.3 3.2 -4.9
v -2.3 3.3 -4.9
v -2.2 3.2 -4.9
v -2.2 3.4 -4.9
v -2.2 3.5 -4.9
v -2.2 3.6 -4.9
v -2.2 3.7 -4.9
v -2.2 3.8 -4.9
v -2.1 3.5 -4.9
v -2.1 3.6 -4.9
v -2.1 3.7 -4.9
v -2.1 3.8 -4.9
v -2 3.5 -4.9
v -2 3.6 -4.9
v -2 3.8 -5
v -2 3.9 -5
v -1.5 3.8 -5
v -1.5 3.9 -5
v -1.9 3.1 -5.1
v -1.9 3.2 -5.1
v -1.9 3.6 -5.1
v -1.9 3.8 -5.1
v -1.9 3.9 -5.1
v -1.9 4 -5.1
v -1.8 3.1 -5.1
v -1.8 3.2 -5.1
v -1.8 4 -5.1
v -1.8 4.1 -5.1
v -1.7 3.1 -5.1
v -1.7 3.2 -5.1
v -1.7 4 -5.1
v -1.7 4.1 -5.1
v -1.6 3.1 -5.1
v -1.6 3.2 -5.1
v -1.6 3.6 -5.1
v -1.6 3.8 -5.1
v -1.6 3.9 -5.1
v -1.6 4 -5.1
v -2.1 3.5 -5.2
v -2.1 3.6 -5.2
v -2 3.5 -5.2
v -2 3.6 -5.2
v -2 3.7 -5.2
v -2 3.8 -5.2
v -1.9 3.2 -5.2
v -1.9 3.4 -5.2
v -1.9 3.5 -5.2
v -1.9 3.6 -5.2
v -1.9 3.7 -5.2
v -1.9 3.8 -5.2
v -1.8 3.2 -5.2
v -1.8 3.3 -5.2
v -1.7 3.2 -5.2
v -1.7 3.3 -5.2
v -1.6 3.2 -5.2
v -1.6 3.4 -5.2
v -1.6 3.5 -5.2
v -1.6 3.6 -5.2
v -1.6 3.7 -5.2
v -1.6 3.8 -5.2
v -1.5 3.5 -5.2
v -1.5 3.6 -5.2
v -1.5 3.7 -5.2
v -1.5 3.8 -5.2
v -1.4 3.5 -5.2
v -1.4 3.6 -5.2
v -2.7 3.5 -5
v -2.7 3.6 -5
v -2.6 3.5 -5
v -2.6 3.6 -5
v -2.6 3.7 -5
v -2.6 3.8 -5
v -2.5 3.1 -5
v -2.5 3.2 -5
v -2.5 3.4 -5
v -2.5 3.5 -5
v -2.5 3.6 -5
v -2.5 3.7 -5
v -2.5 3.9 -5
v -2.5 4 -5
v -2.4 3.1 -5
v -2.4 3.2 -5
v -2.4 3.3 -5
v -2.4 4 -5
v -2.4 4.1 -5
v -2.3 3.1 -5
v -2.3 3.2 -5
v -2.3 3.3 -5
v -2.3 4 -5
v -2.3 4.1 -5
v -2.2 3.1 -5
v -2.2 3.2 -5
v -2.2 3.4 -5
v -2.2 3.5 -5
v -2.2 3.6 -5
v -2.2 3.7 -5
v -2.2 3.9 -5
v -2.2 4 -5
v -2.1 3.5 -5
v -2.1 3.6 -5
v -2.1 3.7 -5
v -2.1 3.8 -5
v -2 3.5 -5
v -2 3.6 -5
v -2.6 3.8 -5.1
v -2.6 3.9 -5.1
v -2.1 3.8 -5.1
v -2.1 3.9 -5.1
v -2.1 3.5 -5.3
v -2.1 3.6 -5.3
v -2 3.5 -5.3
v -2 3.6 -5.3
v -2 3.7 -5.3
v -2 3.8 -5.3
v -1.9 3.1 -5.3
v -1.9 3.2 -5.3
v -1.9 3.4 -5.3
v -1.9 3.5 -5.3
v -1.9 3.6 -5.3
v -1.9 3.7 -5.3
v -1.9 3.9 -5.3
v -1.9 4 -5.3
v -1.8 3.1 -5.3
v -1.8 3.2 -5.3
v -1.8 3.3 -5.3
v -1.8 4 -5.3
v -1.8 4.1 -5.3
v -1.7 3.1 -5.3
v -1.7 3.2 -5.3
v -1.7 3.3 -5.3
v -1.7 4 -5.3
v -1.7 4.1 -5.3
v -1.6 3.1 -5.3
v -1.6 3.2 -5.3
v -1.6 3.4 -5.3
v -1.6 3.5 -5.3
v -1.6 3.6 -5.3
v -1.6 3.7 -5.3
v -1.6 3.9 -5.3
v -1.6 4 -5.3
v -1.5 3.5 -5.3
v -1.5 3.6 -5.3
v -1.5 3.7 -5.3
v -1.5 3.8 -5.3
v -1.4 3.5 -5.3
v -1.4 3.6 -5.3
v -2 3.8 -5.4
v -2 3.9 -5.4
v -1.5 3.8 -5.4
v -1.5 3.9 -5.4
v -2.5 3.1 -4.8
v -2.4 3.1 -4.8
v -2.3 3.1 -4.8
v -2.2 3.1 -4.8
v -2.5 3.1 -5
v -2.4 3.1 -5
v -2.3 3.1 -5
v -2.2 3.1 -5
v -1.9 3.1 -5.1
v -1.8 3.1 -5.1
v -1.7 3.1 -5.1
v -1.6 3.1 -5.1
v -1.9 3.1 -5.3
v -1.8 3.1 -5.3
v -1.7 3.1 -5.3
v -1.6 3.1 -5.3
v -2.4 3.3 -4.9
v -2.3 3.3 -4.9
v -2.4 3.3 -5
v -2.3 3.3 -5
v -1.8 3.3 -5.2
v -1.7 3.3 -5.2
v -1.8 3.3 -5.3
v -1.7 3.3 -5.3
v -2.7 3.5 -4.9
v -2.6 3.5 -4.9
v -2.5 3.5 -4.9
v -2.2 3.5 -4.9
v -2.1 3.5 -4.9
v -2 3.5 -4.9
v -2.7 3.5 -5
v -2.6 3.5 -5
v -2.5 3.5 -5
v -2.2 3.5 -5
v -2.1 3.5 -5
v -2 3.5 -5
v -2.1 3.5 -5.2
v -2 3.5 -5.2
v -1.9 3.5 -5.2
v -1.6 3.5 -5.2
v -1.5 3.5 -5.2
v -1.4 3.5 -5.2
v -2.1 3.5 -5.3
v -2 3.5 -5.3
v -1.9 3.5 -5.3
v -1.6 3.5 -5.3
v -1.5 3.5 -5.3
v -1.4 3.5 -5.3
v -2.5 3.6 -4.8
v -2.2 3.6 -4.8
v -2.5 3.6 -4.9
v -2.2 3.6 -4.9
v -1.9 3.6 -5.1
v -1.6 3.6 -5.1
v -1.9 3.6 -5.2
v -1.6 3.6 -5.2
v -2.6 3.7 -4.9
v -2.5 3.7 -4.9
v -2.2 3.7 -4.9
v -2.1 3.7 -4.9
v -2.6 3.7 -5
v -2.5 3.7 -5
v -2.2 3.7 -5
v -2.1 3.7 -5
v -2 3.7 -5.2
v -1.9 3.7 -5.2
v -1.6 3.7 -5.2
v -1.5 3.7 -5.2
v -2 3.7 -5.3
v -1.9 3.7 -5.3
v -1.6 3.7 -5.3
v -1.5 3.7 -5.3
v -2.6 3.8 -4.7
v -2.1 3.8 -4.7
v -2.5 3.8 -4.8
v -2.2 3.8 -4.8
v -2.6 3.8 -4.9
v -2.5 3.8 -4.9
v -2.2 3.8 -4.9
v -2.1 3.8 -4.9
v -2.6 3.8 -5
v -2.1 3.8 -5
v -2 3.8 -5
v -1.5 3.8 -5
v -2.6 3.8 -5.1
v -2.1 3.8 -5.1
v -1.9 3.8 -5.1
v -1.6 3.8 -5.1
v -2 3.8 -5.2
v -1.9 3.8 -5.2
v -1.6 3.8 -5.2
v -1.5 3.8 -5.2
v -2 3.8 -5.3
v -1.5 3.8 -5.3
v -2 3.8 -5.4
v -1.5 3.8 -5.4
v -2.5 3.2 -4.8
v -2.4 3.2 -4.8
v -2.3 3.2 -4.8
v -2.2 3.2 -4.8
v -2.5 3.2 -4.9
v -2.4 3.2 -4.9
v -2.3 3.2 -4.9
v -2.2 3.2 -4.9
v -1.9 3.2 -5.1
v -1.8 3.2 -5.1
v -1.7 3.2 -5.1
v -1.6 3.2 -5.1
v -1.9 3.2 -5.2
v -1.8 3.2 -5.2
v -1.7 3.2 -5.2
v -1.6 3.2 -5.2
v -2.7 3.6 -4.9
v -2.6 3.6 -4.9
v -2.5 3.6 -4.9
v -2.2 3.6 -4.9
v -2.1 3.6 -4.9
v -2 3.6 -4.9
v -2.7 3.6 -5
v -2.6 3.6 -5
v -2.5 3.6 -5
v -2.2 3.6 -5
v -2.1 3.6 -5
v -2 3.6 -5
v -2.1 3.6 -5.2
v -2 3.6 -5.2
v -1.9 3.6 -5.2
v -1.6 3.6 -5.2
v -1.5 3.6 -5.2
v -1.4 3.6 -5.2
v -2.1 3.6 -5.3
v -2 3.6 -5.3
v -1.9 3.6 -5.3
v -1.6 3.6 -5.3
v -1.5 3.6 -5.3
v -1.4 3.6 -5.3
v -2.6 3.9 -4.7
v -2.1 3.9 -4.7
v -2.5 3.9 -4.8
v -2.2 3.9 -4.8
v -2.5 3.9 -5
v -2.2 3.9 -5
v -2 3.9 -5
v -1.5 3.9 -5
v -2.6 3.9 -5.1
v -2.1 3.9 -5.1
v -1.9 3.9 -5.1
v -1.6 3.9 -5.1
v -1.9 3.9 -5.3
v -1.6 3.9 -5.3
v -2 3.9 -5.4
v -1.5 3.9 -5.4
v -2.5 4 -4.8
v -2.4 4 -4.8
v -2.3 4 -4.8
v -2.2 4 -4.8
v -2.5 4 -5
v -2.4 4 -5
v -2.3 4 -5
v -2.2 4 -5
v -1.9 4 -5.1
v -1.8 4 -5.1
v -1.7 4 -5.1
v -1.6 4 -5.1
v -1.9 4 -5.3
v -1.8 4 -5.3
v -1.7 4 -5.3
v -1.6 4 -5.3
v -2.4 4.1 -4.8
v -2.3 4.1 -4.8
v -2.4 4.1 -5
v -2.3 4.1 -5
v -1.8 4.1 -5.1
v -1.7 4.1 -5.1
v -1.8 4.1 -5.3
v -1.7 4.1 -5.3

# faces
f 3/1/1 2/1/1 1/1/1
f 4/1/1 2/1/1 3/1/1
f 8/1/1 6/1/1 5/1/1
f 9/1/1 6/1/1 8/1/1
f 11/3/1 8/3/1 7/3/1
f 11/3/1 10/3/1 9/3/1
f 11/3/1 9/3/1 8/3/1
f 12/3/1 10/3/1 11/3/1
f 15/2/1 14/2/1 13/2/1
f 16/2/1 14/2/1 15/2/1
f 17/2/1 14/2/1 16/2/1
f 18/4/1 17/4/1 16/4/1
f 19/4/1 17/4/1 18/4/1
f 20/3/1 19/3/1 18/3/1
f 21/3/1 19/3/1 20/3/1
f 25/1/1 23/1/1 22/1/1
f 25/1/1 24/1/1 23/1/1
f 26/1/1 24/1/1 25/1/1
f 27/1/1 25/1/1 22/1/1
f 28/1/1 25/1/1 27/1/1
f 31/3/1 30/3/1 29/3/1
f 32/3/1 30/3/1 31/3/1
f 35/3/1 34/3/1 33/3/1
f 36/3/1 34/3/1 35/3/1
f 39/2/1 38/2/1 37/2/1
f 40/2/1 38/2/1 39/2/1
f 41/2/1 38/2/1 40/2/1
f 42/4/1 41/4/1 40/4/1
f 43/4/1 41/4/1 42/4/1
f 46/1/1 45/1/1 44/1/1
f 47/1/1 45/1/1 46/1/1
f 51/1/1 49/1/1 48/1/1
f 52/1/1 49/1/1 51/1/1
f 54/3/1 51/3/1 50/3/1
f 54/3/1 53/3/1 52/3/1
f 54/3/1 52/3/1 51/3/1
f 55/3/1 53/3/1 54/3/1
f 58/2/1 57/2/1 56/2/1
f 59/2/1 57/2/1 58/2/1
f 60/2/1 57/2/1 59/2/1
f 61/4/1 60/4/1 59/4/1
f 62/4/1 60/4/1 61/4/1
f 63/3/1 62/3/1 61/3/1
f 64/3/1 62/3/1 63/3/1
f 68/1/1 66/1/1 65/1/1
f 68/1/1 67/1/1 66/1/1
f 69/1/1 67/1/1 68/1/1
f 70/1/1 68/1/1 65/1/1
f 71/1/1 68/1/1 70/1/1
f 74/3/1 73/3/1 72/3/1
f 75/3/1 73/3/1 74/3/1
f 78/3/1 77/3/1 76/3/1
f 79/3/1 77/3/1 78/3/1
f 82/2/1 81/2/1 80/2/1
f 83/2/1 81/2/1 82/2/1
f 84/2/1 81/2/1 83/2/1
f 85/4/1 84/4/1 83/4/1
f 86/4/1 84/4/1 85/4/1
f 87/2/2 88/2/2 89/2/2
f 89/2/2 88/2/2 90/2/2
f 90/2/2 88/2/2 91/2/2
f 90/4/2 91/4/2 92/4/2
f 92/4/2 91/4/2 93/4/2
f 94/3/2 95/3/2 96/3/2
f 96/3/2 95/3/2 97/3/2
f 98/2/2 99/2/2 100/2/2
f 100/2/2 99/2/2 101/2/2
f 101/2/2 99/2/2 102/2/2
f 101/4/2 102/4/2 103/4/2
f 103/4/2 102/4/2 104/4/2
f 103/3/2 104/3/2 105/3/2
f 105/3/2 104/3/2 106/3/2
f 107/1/2 108/1/2 110/1/2
f 108/1/2 109/1/2 110/1/2
f 110/1/2 109/1/2 111/1/2
f 107/1/2 110/1/2 112/1/2
f 112/1/2 110/1/2 113/1/2
f 114/3/2 115/3/2 116/3/2
f 116/3/2 115/3/2 117/3/2
f 118/1/2 119/1/2 121/1/2
f 121/1/2 119/1/2 122/1/2
f 120/3/2 121/3/2 124/3/2
f 122/3/2 123/3/2 124/3/2
f 121/3/2 122/3/2 124/3/2
f 124/3/2 123/3/2 125/3/2
f 126/1/2 127/1/2 128/1/2
f 128/1/2 127/1/2 129/1/2
f 130/2/2 131/2/2 132/2/2
f 132/2/2 131/2/2 133/2/2
f 133/2/2 131/2/2 134/2/2
f 133/4/2 134/4/2 135/4/2
f 135/4/2 134/4/2 136/4/2
f 137/3/2 138/3/2 139/3/2
f 139/3/2 138/3/2 140/3/2
f 141/2/2 142/2/2 143/2/2
f 143/2/2 142/2/2 144/2/2
f 144/2/2 142/2/2 145/2/2
f 144/4/2 145/4/2 146/4/2
f 146/4/2 145/4/2 147/4/2
f 146/3/2 147/3/2 148/3/2
f 148/3/2 147/3/2 149/3/2
f 150/1/2 151/1/2 153/1/2
f 151/1/2 152/1/2 153/1/2
f 153/1/2 152/1/2 154/1/2
f 150/1/2 153/1/2 155/1/2
f 155/1/2 153/1/2 156/1/2
f 157/3/2 158/3/2 159/3/2
f 159/3/2 158/3/2 160/3/2
f 161/1/2 162/1/2 164/1/2
f 164/1/2 162/1/2 165/1/2
f 163/3/2 164/3/2 167/3/2
f 165/3/2 166/3/2 167/3/2
f 164/3/2 165/3/2 167/3/2
f 167/3/2 166/3/2 168/3/2
f 169/1/2 170/1/2 171/1/2
f 171/1/2 170/1/2 172/1/2
f 175/3/3 174/3/3 173/3/3
f 176/3/3 174/3/3 175/3/3
f 183/2/3 178/2/3 177/2/3
f 184/2/3 178/2/3 183/2/3
f 185/3/3 182/3/3 181/3/3
f 189/3/3 186/3/3 185/3/3
f 189/3/3 185/3/3 181/3/3
f 190/3/3 186/3/3 189/3/3
f 191/2/3 188/2/3 187/2/3
f 192/2/3 188/2/3 191/2/3
f 193/1/3 180/1/3 179/1/3
f 194/1/3 180/1/3 193/1/3
f 195/3/3 189/3/3 181/3/3
f 196/3/3 189/3/3 195/3/3
f 199/1/3 198/1/3 197/1/3
f 200/1/3 198/1/3 199/1/3
f 205/3/3 200/3/3 199/3/3
f 206/3/3 200/3/3 205/3/3
f 207/1/3 202/1/3 201/1/3
f 208/1/3 202/1/3 207/1/3
f 209/4/3 204/4/3 203/4/3
f 210/4/3 204/4/3 209/4/3
f 212/4/3 204/4/3 210/4/3
f 213/4/3 212/4/3 211/4/3
f 214/3/3 206/3/3 205/3/3
f 214/4/3 212/4/3 213/4/3
f 214/3/3 205/3/3 204/3/3
f 214/4/3 204/4/3 212/4/3
f 215/3/3 206/3/3 214/3/3
f 216/3/3 206/3/3 215/3/3
f 219/3/3 216/3/3 215/3/3
f 220/3/3 216/3/3 219/3/3
f 221/1/3 218/1/3 217/1/3
f 222/1/3 218/1/3 221/1/3
f 223/1/3 220/1/3 219/1/3
f 224/1/3 220/1/3 223/1/3
f 227/3/3 226/3/3 225/3/3
f 228/3/3 226/3/3 227/3/3
f 235/2/3 230/2/3 229/2/3
f 236/2/3 230/2/3 235/2/3
f 237/3/3 234/3/3 233/3/3
f 241/3/3 238/3/3 237/3/3
f 241/3/3 237/3/3 233/3/3
f 242/3/3 238/3/3 241/3/3
f 243/2/3 240/2/3 239/2/3
f 244/2/3 240/2/3 243/2/3
f 245/1/3 232/1/3 231/1/3
f 246/1/3 232/1/3 245/1/3
f 247/3/3 241/3/3 233/3/3
f 248/3/3 241/3/3 247/3/3
f 251/1/3 250/1/3 249/1/3
f 252/1/3 250/1/3 251/1/3
f 257/3/3 252/3/3 251/3/3
f 258/3/3 252/3/3 257/3/3
f 259/1/3 254/1/3 253/1/3
f 260/1/3 254/1/3 259/1/3
f 261/4/3 256/4/3 255/4/3
f 262/4/3 256/4/3 261/4/3
f 264/4/3 256/4/3 262/4/3
f 265/4/3 264/4/3 263/4/3
f 266/3/3 258/3/3 257/3/3
f 266/4/3 264/4/3 265/4/3
f 266/3/3 257/3/3 256/3/3
f 266/4/3 256/4/3 264/4/3
f 267/3/3 258/3/3 266/3/3
f 268/3/3 258/3/3 267/3/3
f 271/3/3 268/3/3 267/3/3
f 272/3/3 268/3/3 271/3/3
f 273/1/3 270/1/3 269/1/3
f 274/1/3 270/1/3 273/1/3
f 275/1/3 272/1/3 271/1/3
f 276/1/3 272/1/3 275/1/3
f 277/1/4 278/1/4 279/1/4
f 279/1/4 278/1/4 280/1/4
f 279/3/4 280/3/4 286/3/4
f 286/3/4 280/3/4 287/3/4
f 281/1/4 282/1/4 288/1/4
f 283/2/4 284/2/4 291/2/4
f 284/4/4 285/4/4 292/4/4
f 291/2/4 284/2/4 292/2/4
f 292/4/4 285/4/4 293/4/4
f 289/3/4 290/3/4 294/3/4
f 293/4/4 285/4/4 298/4/4
f 294/3/4 295/3/4 299/3/4
f 289/3/4 294/3/4 299/3/4
f 299/3/4 295/3/4 300/3/4
f 296/2/4 297/2/4 301/2/4
f 297/4/4 298/4/4 302/4/4
f 301/2/4 297/2/4 302/2/4
f 286/3/4 287/3/4 303/3/4
f 302/4/4 298/4/4 303/4/4
f 285/3/4 286/3/4 303/3/4
f 298/4/4 285/4/4 303/4/4
f 303/3/4 287/3/4 304/3/4
f 287/1/4 288/1/4 305/1/4
f 304/3/4 287/3/4 305/3/4
f 288/1/4 282/1/4 306/1/4
f 305/1/4 288/1/4 306/1/4
f 289/3/4 299/3/4 307/3/4
f 307/3/4 299/3/4 308/3/4
f 304/3/4 305/3/4 309/3/4
f 309/3/4 305/3/4 310/3/4
f 306/1/4 282/1/4 311/1/4
f 311/1/4 282/1/4 312/1/4
f 309/1/4 310/1/4 313/1/4
f 313/1/4 310/1/4 314/1/4
f 315/3/4 316/3/4 317/3/4
f 317/3/4 316/3/4 318/3/4
f 319/1/4 320/1/4 321/1/4
f 321/1/4 320/1/4 322/1/4
f 321/3/4 322/3/4 328/3/4
f 328/3/4 322/3/4 329/3/4
f 323/1/4 324/1/4 330/1/4
f 325/2/4 326/2/4 333/2/4
f 326/4/4 327/4/4 334/4/4
f 333/2/4 326/2/4 334/2/4
f 334/4/4 327/4/4 335/4/4
f 331/3/4 332/3/4 336/3/4
f 335/4/4 327/4/4 340/4/4
f 336/3/4 337/3/4 341/3/4
f 331/3/4 336/3/4 341/3/4
f 341/3/4 337/3/4 342/3/4
f 338/2/4 339/2/4 343/2/4
f 339/4/4 340/4/4 344/4/4
f 343/2/4 339/2/4 344/2/4
f 328/3/4 329/3/4 345/3/4
f 344/4/4 340/4/4 345/4/4
f 327/3/4 328/3/4 345/3/4
f 340/4/4 327/4/4 345/4/4
f 345/3/4 329/3/4 346/3/4
f 329/1/4 330/1/4 347/1/4
f 346/3/4 329/3/4 347/3/4
f 330/1/4 324/1/4 348/1/4
f 347/1/4 330/1/4 348/1/4
f 331/3/4 341/3/4 349/3/4
f 349/3/4 341/3/4 350/3/4
f 346/3/4 347/3/4 351/3/4
f 351/3/4 347/3/4 352/3/4
f 348/1/4 324/1/4 353/1/4
f 353/1/4 324/1/4 354/1/4
f 351/1/4 352/1/4 355/1/4
f 355/1/4 352/1/4 356/1/4
f 357/3/4 358/3/4 359/3/4
f 359/3/4 358/3/4 360/3/4
f 365/2/5 362/2/5 361/2/5
f 366/2/5 362/2/5 365/2/5
f 367/2/5 364/2/5 363/2/5
f 368/2/5 364/2/5 367/2/5
f 373/2/5 370/2/5 369/2/5
f 374/2/5 370/2/5 373/2/5
f 375/2/5 372/2/5 371/2/5
f 376/2/5 372/2/5 375/2/5
f 379/4/5 378/4/5 377/4/5
f 380/4/5 378/4/5 379/4/5
f 383/4/5 382/4/5 381/4/5
f 384/4/5 382/4/5 383/4/5
f 391/1/5 386/1/5 385/1/5
f 392/3/5 387/3/5 386/3/5
f 392/1/5 386/1/5 391/1/5
f 393/3/5 387/3/5 392/3/5
f 394/3/5 389/3/5 388/3/5
f 395/1/5 390/1/5 389/1/5
f 395/3/5 389/3/5 394/3/5
f 396/1/5 390/1/5 395/1/5
f 403/1/5 398/1/5 397/1/5
f 404/3/5 399/3/5 398/3/5
f 404/1/5 398/1/5 403/1/5
f 405/3/5 399/3/5 404/3/5
f 406/3/5 401/3/5 400/3/5
f 407/1/5 402/1/5 401/1/5
f 407/3/5 401/3/5 406/3/5
f 408/1/5 402/1/5 407/1/5
f 411/1/5 410/1/5 409/1/5
f 412/1/5 410/1/5 411/1/5
f 415/1/5 414/1/5 413/1/5
f 416/1/5 414/1/5 415/1/5
f 421/1/5 418/1/5 417/1/5
f 422/1/5 418/1/5 421/1/5
f 423/1/5 420/1/5 419/1/5
f 424/1/5 420/1/5 423/1/5
f 429/1/5 426/1/5 425/1/5
f 430/1/5 426/1/5 429/1/5
f 431/1/5 428/1/5 427/1/5
f 432/1/5 428/1/5 431/1/5
f 435/3/5 434/3/5 433/3/5
f 436/3/5 434/3/5 435/3/5
f 437/3/5 435/3/5 433/3/5
f 438/3/5 435/3/5 437/3/5
f 439/3/5 434/3/5 436/3/5
f 440/3/5 434/3/5 439/3/5
f 445/3/5 442/3/5 441/3/5
f 446/3/5 442/3/5 445/3/5
f 447/3/5 444/3/5 443/3/5
f 448/3/5 444/3/5 447/3/5
f 449/3/5 447/3/5 443/3/5
f 450/3/5 447/3/5 449/3/5
f 451/3/5 444/3/5 448/3/5
f 452/3/5 444/3/5 451/3/5
f 455/3/5 454/3/5 453/3/5
f 456/3/5 454/3/5 455/3/5
f 457/2/6 458/2/6 461/2/6
f 461/2/6 458/2/6 462/2/6
f 459/2/6 460/2/6 463/2/6
f 463/2/6 460/2/6 464/2/6
f 465/2/6 466/2/6 469/2/6
f 469/2/6 466/2/6 470/2/6
f 467/2/6 468/2/6 471/2/6
f 471/2/6 468/2/6 472/2/6
f 473/1/6 474/1/6 479/1/6
f 474/3/6 475/3/6 480/3/6
f 479/1/6 474/1/6 480/1/6
f 480/3/6 475/3/6 481/3/6
f 476/3/6 477/3/6 482/3/6
f 477/1/6 478/1/6 483/1/6
f 482/3/6 477/3/6 483/3/6
f 483/1/6 478/1/6 484/1/6
f 485/1/6 486/1/6 491/1/6
f 486/3/6 487/3/6 492/3/6
f 491/1/6 486/1/6 492/1/6
f 492/3/6 487/3/6 493/3/6
f 488/3/6 489/3/6 494/3/6
f 489/1/6 490/1/6 495/1/6
f 494/3/6 489/3/6 495/3/6
f 495/1/6 490/1/6 496/1/6
f 497/3/6 498/3/6 499/3/6
f 499/3/6 498/3/6 500/3/6
f 497/3/6 499/3/6 501/3/6
f 500/3/6 498/3/6 502/3/6
f 497/3/6 501/3/6 505/3/6
f 501/3/6 502/3/6 505/3/6
f 502/3/6 498/3/6 506/3/6
f 505/3/6 502/3/6 506/3/6
f 503/3/6 504/3/6 507/3/6
f 507/3/6 504/3/6 508/3/6
f 503/3/6 507/3/6 509/3/6
f 508/3/6 504/3/6 510/3/6
f 503/3/6 509/3/6 511/3/6
f 509/3/6 510/3/6 511/3/6
f 510/3/6 504/3/6 512/3/6
f 511/3/6 510/3/6 512/3/6
f 513/3/6 514/3/6 517/3/6
f 517/3/6 514/3/6 518/3/6
f 515/3/6 516/3/6 519/3/6
f 519/3/6 516/3/6 520/3/6
f 521/3/6 522/3/6 525/3/6
f 525/3/6 522/3/6 526/3/6
f 523/3/6 524/3/6 527/3/6
f 527/3/6 524/3/6 528/3/6
f 529/3/6 530/3/6 531/3/6
f 531/3/6 530/3/6 532/3/6
f 533/3/6 534/3/6 535/3/6
f 535/3/6 534/3/6 536/3/6
