# MagicaVoxel @ Ephtracy

# group
o giraffe2

# material
mtllib zoo-0-giraffe2.mtl
usemtl palette

# normals
vn 0 0 1
vn 0 0 -1
vn -1 0 0
vn 1 0 0
vn 0 -1 0
vn 0 1 0

# texcoords
vt 0.751953 0.5
vt 0.755859 0.5
vt 0.759766 0.5
vt 0.783203 0.5
vt 0.787109 0.5

# verts
v -5 1.4 3.2
v -4.9 1.4 3.2
v -5 1.5 3.2
v -4.9 1.5 3.2
v -5.1 1.3 3.1
v -4.8 1.3 3.1
v -5 1.4 3.1
v -4.9 1.4 3.1
v -5.1 1.5 3.1
v -5 1.5 3.1
v -4.9 1.5 3.1
v -4.8 1.5 3.1
v -5.3 0.1 3
v -5.1 0.1 3
v -4.8 0.1 3
v -4.6 0.1 3
v -5.3 0.2 3
v -5.1 0.2 3
v -4.8 0.2 3
v -4.6 0.2 3
v -5.3 0.3 3
v -5.1 0.3 3
v -4.8 0.3 3
v -4.6 0.3 3
v -5.3 0.7 3
v -5.1 0.7 3
v -5.3 0.9 3
v -5.1 0.9 3
v -5.1 1 3
v -4.8 1 3
v -4.7 1.1 3
v -4.6 1.1 3
v -5.1 1.3 3
v -4.8 1.3 3
v -4.7 1.3 3
v -4.6 1.3 3
v -5.3 1.4 3
v -5.1 1.4 3
v -5.1 1.5 3
v -5 1.5 3
v -4.8 1.5 3
v -5.3 1.6 3
v -5.1 1.6 3
v -5 1.6 3
v -4.8 1.6 3
v -4.6 1.6 3
v -5.1 1.6 2.3
v -4.8 1.6 2.3
v -4.9 2.2 2.3
v -4.8 2.2 2.3
v -4.9 2.4 2.3
v -4.8 2.4 2.3
v -5.1 3.4 2.3
v -4.8 3.4 2.3
v -5.3 0.1 2.2
v -5.1 0.1 2.2
v -4.8 0.1 2.2
v -4.6 0.1 2.2
v -5.3 0.2 2.2
v -5.1 0.2 2.2
v -4.8 0.2 2.2
v -4.6 0.2 2.2
v -5.3 0.3 2.2
v -5.1 0.3 2.2
v -4.8 0.3 2.2
v -4.6 0.3 2.2
v -4.7 0.5 2.2
v -4.6 0.5 2.2
v -4.7 0.7 2.2
v -4.6 0.7 2.2
v -5.3 1 2.2
v -5.1 1 2.2
v -4.8 1 2.2
v -4.6 1 2.2
v -5.3 3.2 2.2
v -5.2 3.2 2.2
v -5.1 3.2 2.2
v -4.8 3.2 2.2
v -4.7 3.2 2.2
v -4.6 3.2 2.2
v -5.3 3.3 2.2
v -5.2 3.3 2.2
v -5.1 3.3 2.2
v -4.8 3.3 2.2
v -4.7 3.3 2.2
v -4.6 3.3 2.2
v -5.1 3.4 2.2
v -5 3.4 2.2
v -4.9 3.4 2.2
v -4.8 3.4 2.2
v -5.1 3.6 2.2
v -5 3.6 2.2
v -4.9 3.6 2.2
v -4.8 3.6 2.2
v -5.3 0.1 2.8
v -5.1 0.1 2.8
v -4.8 0.1 2.8
v -4.6 0.1 2.8
v -5.3 0.2 2.8
v -5.1 0.2 2.8
v -4.8 0.2 2.8
v -4.6 0.2 2.8
v -5.3 0.3 2.8
v -5.1 0.3 2.8
v -4.8 0.3 2.8
v -4.6 0.3 2.8
v -5.3 1 2.8
v -5.1 1 2.8
v -4.8 1 2.8
v -4.7 1 2.8
v -4.6 1 2.8
v -5.3 3.2 2.1
v -5.2 3.2 2.1
v -5.1 3.2 2.1
v -4.8 3.2 2.1
v -4.7 3.2 2.1
v -4.6 3.2 2.1
v -5.3 3.3 2.1
v -5.2 3.3 2.1
v -5.1 3.3 2.1
v -4.8 3.3 2.1
v -4.7 3.3 2.1
v -4.6 3.3 2.1
v -5.1 3.4 2.1
v -5 3.4 2.1
v -4.9 3.4 2.1
v -4.8 3.4 2.1
v -5.1 3.6 2.1
v -5 3.6 2.1
v -4.9 3.6 2.1
v -4.8 3.6 2.1
v -5.3 0.1 2
v -5.1 0.1 2
v -4.8 0.1 2
v -4.6 0.1 2
v -5.3 0.2 2
v -5.1 0.2 2
v -4.8 0.2 2
v -4.6 0.2 2
v -5.3 0.3 2
v -5.1 0.3 2
v -4.8 0.3 2
v -4.6 0.3 2
v -4.7 0.5 2
v -4.6 0.5 2
v -4.7 0.7 2
v -4.6 0.7 2
v -5.3 0.8 2
v -5.1 0.8 2
v -4.7 0.9 2
v -4.6 0.9 2
v -5.3 1 2
v -5.1 1 2
v -4.8 1 2
v -4.7 1.1 2
v -4.6 1.1 2
v -5 1.2 2
v -4.8 1.2 2
v -5.3 1.3 2
v -5.2 1.3 2
v -5 1.4 2
v -4.8 1.4 2
v -5.3 1.5 2
v -5.2 1.5 2
v -5.3 1.6 2
v -5.1 1.6 2
v -4.8 1.6 2
v -4.6 1.6 2
v -5.1 1.8 2
v -4.9 1.8 2
v -5.1 2.1 2
v -4.9 2.1 2
v -5.1 2.4 2
v -5 2.4 2
v -5.1 2.6 2
v -5 2.6 2
v -4.9 2.7 2
v -4.8 2.7 2
v -4.9 2.9 2
v -4.8 2.9 2
v -5.1 3 2
v -4.8 3 2
v -5.1 3.3 1.9
v -4.8 3.3 1.9
v -5.1 3.4 1.9
v -4.8 3.4 1.9
v -5.1 3.2 1.8
v -4.8 3.2 1.8
v -5.1 3.3 1.8
v -4.8 3.3 1.8
v -5.1 3 1.7
v -4.8 3 1.7
v -5.1 3.2 1.7
v -4.8 3.2 1.7
v -5.3 0.1 3
v -5.3 0.2 3
v -5.3 0.3 3
v -5.3 0.7 3
v -5.3 0.9 3
v -5.3 1.4 3
v -5.3 1.6 3
v -5.3 0.7 2.9
v -5.3 0.9 2.9
v -5.3 1.4 2.9
v -5.3 1.6 2.9
v -5.3 0.1 2.8
v -5.3 0.2 2.8
v -5.3 0.3 2.8
v -5.3 1 2.8
v -5.3 1.5 2.7
v -5.3 1.6 2.7
v -5.3 1 2.6
v -5.3 1.2 2.6
v -5.3 1 2.4
v -5.3 1.2 2.4
v -5.3 1.5 2.4
v -5.3 1.6 2.4
v -5.3 0.1 2.2
v -5.3 0.2 2.2
v -5.3 0.3 2.2
v -5.3 1 2.2
v -5.3 3.2 2.2
v -5.3 3.3 2.2
v -5.3 0.8 2.1
v -5.3 1 2.1
v -5.3 1.3 2.1
v -5.3 1.5 2.1
v -5.3 3.2 2.1
v -5.3 3.3 2.1
v -5.3 0.1 2
v -5.3 0.2 2
v -5.3 0.3 2
v -5.3 0.8 2
v -5.3 1 2
v -5.3 1.3 2
v -5.3 1.5 2
v -5.3 1.6 2
v -5.1 1.3 3.1
v -5.1 1.5 3.1
v -5.1 1.3 3
v -5.1 1.4 3
v -5.1 1.5 3
v -5.1 1.6 2.3
v -5.1 3.4 2.3
v -5.1 2.4 2.2
v -5.1 2.6 2.2
v -5.1 3.2 2.2
v -5.1 3.3 2.2
v -5.1 3.4 2.2
v -5.1 3.6 2.2
v -5.1 1.8 2.1
v -5.1 2.1 2.1
v -5.1 3.1 2.1
v -5.1 3.2 2.1
v -5.1 3.3 2.1
v -5.1 3.4 2.1
v -5.1 3.6 2.1
v -5.1 1.6 2
v -5.1 1.8 2
v -5.1 2.1 2
v -5.1 2.4 2
v -5.1 2.6 2
v -5.1 3 2
v -5.1 3.1 2
v -5.1 3.2 2
v -5.1 3.1 1.9
v -5.1 3.2 1.9
v -5.1 3.3 1.9
v -5.1 3.4 1.9
v -5.1 3.2 1.8
v -5.1 3.3 1.8
v -5.1 3 1.7
v -5.1 3.2 1.7
v -5 1.4 3.2
v -5 1.5 3.2
v -5 1.4 3.1
v -5 1.5 3.1
v -4.9 3.4 2.2
v -4.9 3.6 2.2
v -4.9 3.4 2.1
v -4.9 3.6 2.1
v -4.8 0.1 3
v -4.8 0.2 3
v -4.8 0.3 3
v -4.8 1 3
v -4.8 0.1 2.8
v -4.8 0.2 2.8
v -4.8 0.3 2.8
v -4.8 1 2.8
v -4.8 0.1 2.2
v -4.8 0.2 2.2
v -4.8 0.3 2.2
v -4.8 1 2.2
v -4.8 0.1 2
v -4.8 0.2 2
v -4.8 0.3 2
v -4.8 1 2
v -5.1 0.1 3
v -5.1 0.2 3
v -5.1 0.3 3
v -5.1 0.7 3
v -5.1 0.9 3
v -5.1 1 3
v -5.1 0.7 2.9
v -5.1 0.9 2.9
v -5.1 0.1 2.8
v -5.1 0.2 2.8
v -5.1 0.3 2.8
v -5.1 1 2.8
v -5.1 0.1 2.2
v -5.1 0.2 2.2
v -5.1 0.3 2.2
v -5.1 1 2.2
v -5.1 0.8 2.1
v -5.1 1 2.1
v -5.1 0.1 2
v -5.1 0.2 2
v -5.1 0.3 2
v -5.1 0.8 2
v -5.1 1 2
v -5 3.4 2.2
v -5 3.6 2.2
v -5 3.4 2.1
v -5 3.6 2.1
v -4.9 1.4 3.2
v -4.9 1.5 3.2
v -4.9 1.4 3.1
v -4.9 1.5 3.1
v -4.8 1.3 3.1
v -4.8 1.5 3.1
v -4.8 1.3 3
v -4.8 1.5 3
v -4.8 1.6 2.3
v -4.8 2.2 2.3
v -4.8 2.4 2.3
v -4.8 3.4 2.3
v -4.8 2.2 2.2
v -4.8 2.4 2.2
v -4.8 2.7 2.2
v -4.8 2.9 2.2
v -4.8 3.2 2.2
v -4.8 3.3 2.2
v -4.8 3.4 2.2
v -4.8 3.6 2.2
v -4.8 3.1 2.1
v -4.8 3.2 2.1
v -4.8 3.3 2.1
v -4.8 3.4 2.1
v -4.8 3.6 2.1
v -4.8 1.6 2
v -4.8 2.7 2
v -4.8 2.9 2
v -4.8 3 2
v -4.8 3.1 2
v -4.8 3.2 2
v -4.8 3.1 1.9
v -4.8 3.2 1.9
v -4.8 3.3 1.9
v -4.8 3.4 1.9
v -4.8 3.2 1.8
v -4.8 3.3 1.8
v -4.8 3 1.7
v -4.8 3.2 1.7
v -4.6 0.1 3
v -4.6 0.2 3
v -4.6 0.3 3
v -4.6 1.1 3
v -4.6 1.3 3
v -4.6 1.6 3
v -4.6 1.1 2.9
v -4.6 1.3 2.9
v -4.6 0.1 2.8
v -4.6 0.2 2.8
v -4.6 0.3 2.8
v -4.6 1 2.8
v -4.6 1.2 2.8
v -4.6 1.4 2.8
v -4.6 1.6 2.8
v -4.6 1 2.6
v -4.6 1.2 2.6
v -4.6 1.4 2.6
v -4.6 1.6 2.6
v -4.6 1.4 2.3
v -4.6 1.6 2.3
v -4.6 0.1 2.2
v -4.6 0.2 2.2
v -4.6 0.3 2.2
v -4.6 0.5 2.2
v -4.6 0.7 2.2
v -4.6 1 2.2
v -4.6 3.2 2.2
v -4.6 3.3 2.2
v -4.6 0.9 2.1
v -4.6 1.1 2.1
v -4.6 1.4 2.1
v -4.6 1.6 2.1
v -4.6 3.2 2.1
v -4.6 3.3 2.1
v -4.6 0.1 2
v -4.6 0.2 2
v -4.6 0.3 2
v -4.6 0.5 2
v -4.6 0.7 2
v -4.6 0.9 2
v -4.6 1.1 2
v -4.6 1.6 2
v -5.3 0.1 3
v -5.3 0.1 2.8
v -5.3 0.1 2.2
v -5.3 0.1 2
v -5.1 0.1 3
v -5.1 0.1 2.8
v -5.1 0.1 2.2
v -5.1 0.1 2
v -4.8 0.1 3
v -4.8 0.1 2.8
v -4.8 0.1 2.2
v -4.8 0.1 2
v -4.6 0.1 3
v -4.6 0.1 2.8
v -4.6 0.1 2.2
v -4.6 0.1 2
v -5.3 1 2.8
v -5.3 1 2.6
v -5.3 1 2.4
v -5.3 1 2.2
v -5.2 1 2.6
v -5.2 1 2.4
v -5.1 1 3
v -5.1 1 2.8
v -5.1 1 2.2
v -5.1 1 2.1
v -5.1 1 2
v -4.8 1 3
v -4.8 1 2.8
v -4.8 1 2.2
v -4.8 1 2
v -4.7 1 2.8
v -4.7 1 2.6
v -4.6 1 2.8
v -4.6 1 2.6
v -4.6 1 2.2
v -5.1 1.3 3.1
v -5.1 1.3 3
v -4.8 1.3 3.1
v -4.8 1.3 3
v -5 1.4 3.2
v -5 1.4 3.1
v -4.9 1.4 3.2
v -4.9 1.4 3.1
v -5.1 3 2
v -5.1 3 1.7
v -4.8 3 2
v -4.8 3 1.7
v -5.3 3.2 2.2
v -5.3 3.2 2.1
v -5.2 3.2 2.2
v -5.2 3.2 2.1
v -5.1 3.2 2.2
v -5.1 3.2 2.1
v -4.8 3.2 2.2
v -4.8 3.2 2.1
v -4.7 3.2 2.2
v -4.7 3.2 2.1
v -4.6 3.2 2.2
v -4.6 3.2 2.1
v -5.1 1.5 3.1
v -5.1 1.5 3
v -5 1.5 3.2
v -5 1.5 3.1
v -5 1.5 3
v -4.9 1.5 3.2
v -4.9 1.5 3.1
v -4.8 1.5 3.1
v -4.8 1.5 3
v -5.3 1.6 3
v -5.3 1.6 2.9
v -5.3 1.6 2.7
v -5.3 1.6 2.4
v -5.3 1.6 2
v -5.1 1.6 3
v -5.1 1.6 2.9
v -5.1 1.6 2.7
v -5.1 1.6 2.4
v -5.1 1.6 2.3
v -5.1 1.6 2
v -5 1.6 3
v -5 1.6 2.8
v -4.8 1.6 3
v -4.8 1.6 2.8
v -4.8 1.6 2.3
v -4.8 1.6 2
v -4.7 1.6 2.8
v -4.7 1.6 2.6
v -4.7 1.6 2.3
v -4.7 1.6 2.1
v -4.6 1.6 3
v -4.6 1.6 2.8
v -4.6 1.6 2.6
v -4.6 1.6 2.3
v -4.6 1.6 2.1
v -4.6 1.6 2
v -5.1 3.2 1.8
v -5.1 3.2 1.7
v -4.8 3.2 1.8
v -4.8 3.2 1.7
v -5.3 3.3 2.2
v -5.3 3.3 2.1
v -5.2 3.3 2.2
v -5.2 3.3 2.1
v -5.1 3.3 2.2
v -5.1 3.3 2.1
v -5.1 3.3 1.9
v -5.1 3.3 1.8
v -4.8 3.3 2.2
v -4.8 3.3 2.1
v -4.8 3.3 1.9
v -4.8 3.3 1.8
v -4.7 3.3 2.2
v -4.7 3.3 2.1
v -4.6 3.3 2.2
v -4.6 3.3 2.1
v -5.1 3.4 2.3
v -5.1 3.4 2.2
v -5.1 3.4 2.1
v -5.1 3.4 1.9
v -5 3.4 2.2
v -5 3.4 2.1
v -4.9 3.4 2.2
v -4.9 3.4 2.1
v -4.8 3.4 2.3
v -4.8 3.4 2.2
v -4.8 3.4 2.1
v -4.8 3.4 1.9
v -5.1 3.6 2.2
v -5.1 3.6 2.1
v -5 3.6 2.2
v -5 3.6 2.1
v -4.9 3.6 2.2
v -4.9 3.6 2.1
v -4.8 3.6 2.2
v -4.8 3.6 2.1

# faces
f 1/3/1 2/3/1 3/3/1
f 3/3/1 2/3/1 4/3/1
f 5/1/1 6/1/1 7/1/1
f 7/1/1 6/1/1 8/1/1
f 5/1/1 7/1/1 9/1/1
f 9/1/1 7/1/1 10/1/1
f 8/1/1 6/1/1 11/1/1
f 11/1/1 6/1/1 12/1/1
f 13/1/1 14/1/1 17/1/1
f 17/1/1 14/1/1 18/1/1
f 15/1/1 16/1/1 19/1/1
f 19/1/1 16/1/1 20/1/1
f 17/3/1 18/3/1 21/3/1
f 21/3/1 18/3/1 22/3/1
f 19/3/1 20/3/1 23/3/1
f 23/3/1 20/3/1 24/3/1
f 21/1/1 22/1/1 25/1/1
f 25/1/1 22/1/1 26/1/1
f 25/2/1 26/2/1 27/2/1
f 27/2/1 26/2/1 28/2/1
f 27/1/1 28/1/1 29/1/1
f 23/1/1 24/1/1 30/1/1
f 30/1/1 24/1/1 31/1/1
f 29/1/1 30/1/1 31/1/1
f 31/1/1 24/1/1 32/1/1
f 27/1/1 29/1/1 33/1/1
f 29/1/1 31/1/1 33/1/1
f 33/1/1 31/1/1 34/1/1
f 31/2/1 32/2/1 35/2/1
f 34/1/1 31/1/1 35/1/1
f 35/2/1 32/2/1 36/2/1
f 27/1/1 33/1/1 37/1/1
f 37/1/1 33/1/1 38/1/1
f 37/2/1 38/2/1 39/2/1
f 35/1/1 36/1/1 41/1/1
f 34/1/1 35/1/1 41/1/1
f 37/2/1 39/2/1 42/2/1
f 39/1/1 40/1/1 43/1/1
f 42/2/1 39/2/1 43/2/1
f 40/2/1 41/2/1 44/2/1
f 43/1/1 40/1/1 44/1/1
f 41/1/1 36/1/1 45/1/1
f 44/2/1 41/2/1 45/2/1
f 45/1/1 36/1/1 46/1/1
f 47/1/1 48/1/1 49/1/1
f 49/1/1 48/1/1 50/1/1
f 47/1/1 49/1/1 51/1/1
f 49/2/1 50/2/1 51/2/1
f 51/2/1 50/2/1 52/2/1
f 47/1/1 51/1/1 53/1/1
f 51/1/1 52/1/1 53/1/1
f 53/1/1 52/1/1 54/1/1
f 55/1/1 56/1/1 59/1/1
f 59/1/1 56/1/1 60/1/1
f 57/1/1 58/1/1 61/1/1
f 61/1/1 58/1/1 62/1/1
f 59/3/1 60/3/1 63/3/1
f 63/3/1 60/3/1 64/3/1
f 61/3/1 62/3/1 65/3/1
f 65/3/1 62/3/1 66/3/1
f 65/1/1 66/1/1 67/1/1
f 67/1/1 66/1/1 68/1/1
f 65/1/1 67/1/1 69/1/1
f 67/2/1 68/2/1 69/2/1
f 69/2/1 68/2/1 70/2/1
f 63/1/1 64/1/1 71/1/1
f 71/1/1 64/1/1 72/1/1
f 65/1/1 69/1/1 73/1/1
f 69/1/1 70/1/1 73/1/1
f 73/1/1 70/1/1 74/1/1
f 75/3/1 76/3/1 81/3/1
f 76/1/1 77/1/1 82/1/1
f 81/3/1 76/3/1 82/3/1
f 82/1/1 77/1/1 83/1/1
f 78/1/1 79/1/1 84/1/1
f 79/3/1 80/3/1 85/3/1
f 84/1/1 79/1/1 85/1/1
f 85/3/1 80/3/1 86/3/1
f 87/3/1 88/3/1 91/3/1
f 91/3/1 88/3/1 92/3/1
f 89/3/1 90/3/1 93/3/1
f 93/3/1 90/3/1 94/3/1
f 99/1/2 96/1/2 95/1/2
f 100/1/2 96/1/2 99/1/2
f 101/1/2 98/1/2 97/1/2
f 102/1/2 98/1/2 101/1/2
f 103/3/2 100/3/2 99/3/2
f 104/3/2 100/3/2 103/3/2
f 105/3/2 102/3/2 101/3/2
f 106/3/2 102/3/2 105/3/2
f 107/1/2 104/1/2 103/1/2
f 108/1/2 104/1/2 107/1/2
f 109/1/2 106/1/2 105/1/2
f 110/1/2 106/1/2 109/1/2
f 111/1/2 106/1/2 110/1/2
f 118/3/2 113/3/2 112/3/2
f 119/1/2 114/1/2 113/1/2
f 119/3/2 113/3/2 118/3/2
f 120/1/2 114/1/2 119/1/2
f 121/1/2 116/1/2 115/1/2
f 122/3/2 117/3/2 116/3/2
f 122/1/2 116/1/2 121/1/2
f 123/3/2 117/3/2 122/3/2
f 128/3/2 125/3/2 124/3/2
f 129/3/2 125/3/2 128/3/2
f 130/3/2 127/3/2 126/3/2
f 131/3/2 127/3/2 130/3/2
f 136/1/2 133/1/2 132/1/2
f 137/1/2 133/1/2 136/1/2
f 138/1/2 135/1/2 134/1/2
f 139/1/2 135/1/2 138/1/2
f 140/3/2 137/3/2 136/3/2
f 141/3/2 137/3/2 140/3/2
f 142/3/2 139/3/2 138/3/2
f 143/3/2 139/3/2 142/3/2
f 144/1/2 143/1/2 142/1/2
f 145/1/2 143/1/2 144/1/2
f 146/1/2 144/1/2 142/1/2
f 146/2/2 145/2/2 144/2/2
f 147/2/2 145/2/2 146/2/2
f 148/1/2 141/1/2 140/1/2
f 149/1/2 141/1/2 148/1/2
f 150/1/2 146/1/2 142/1/2
f 150/1/2 147/1/2 146/1/2
f 151/1/2 147/1/2 150/1/2
f 152/2/2 149/2/2 148/2/2
f 153/2/2 149/2/2 152/2/2
f 154/1/2 150/1/2 142/1/2
f 155/1/2 153/1/2 152/1/2
f 155/1/2 154/1/2 153/1/2
f 155/1/2 150/1/2 154/1/2
f 155/2/2 151/2/2 150/2/2
f 156/2/2 151/2/2 155/2/2
f 157/1/2 155/1/2 152/1/2
f 157/1/2 156/1/2 155/1/2
f 158/1/2 156/1/2 157/1/2
f 159/1/2 157/1/2 152/1/2
f 160/1/2 157/1/2 159/1/2
f 161/2/2 158/2/2 157/2/2
f 161/1/2 157/1/2 160/1/2
f 162/1/2 156/1/2 158/1/2
f 162/2/2 158/2/2 161/2/2
f 163/2/2 160/2/2 159/2/2
f 164/1/2 161/1/2 160/1/2
f 164/2/2 160/2/2 163/2/2
f 164/1/2 162/1/2 161/1/2
f 165/1/2 164/1/2 163/1/2
f 166/1/2 162/1/2 164/1/2
f 166/1/2 164/1/2 165/1/2
f 167/1/2 156/1/2 162/1/2
f 167/1/2 162/1/2 166/1/2
f 168/1/2 156/1/2 167/1/2
f 169/1/2 167/1/2 166/1/2
f 170/1/2 167/1/2 169/1/2
f 171/2/2 170/2/2 169/2/2
f 172/1/2 167/1/2 170/1/2
f 172/2/2 170/2/2 171/2/2
f 173/1/2 172/1/2 171/1/2
f 174/1/2 172/1/2 173/1/2
f 175/2/2 174/2/2 173/2/2
f 176/1/2 172/1/2 174/1/2
f 176/2/2 174/2/2 175/2/2
f 177/1/2 167/1/2 172/1/2
f 177/1/2 172/1/2 176/1/2
f 177/1/2 176/1/2 175/1/2
f 178/1/2 167/1/2 177/1/2
f 179/1/2 177/1/2 175/1/2
f 179/2/2 178/2/2 177/2/2
f 180/2/2 178/2/2 179/2/2
f 181/1/2 179/1/2 175/1/2
f 181/1/2 180/1/2 179/1/2
f 182/1/2 180/1/2 181/1/2
f 185/1/2 184/1/2 183/1/2
f 186/1/2 184/1/2 185/1/2
f 189/1/2 188/1/2 187/1/2
f 190/1/2 188/1/2 189/1/2
f 193/1/2 192/1/2 191/1/2
f 194/1/2 192/1/2 193/1/2
f 197/1/3 198/1/3 202/1/3
f 198/2/3 199/2/3 202/2/3
f 199/1/3 200/1/3 203/1/3
f 202/2/3 199/2/3 203/2/3
f 200/2/3 201/2/3 204/2/3
f 203/1/3 200/1/3 204/1/3
f 204/2/3 201/2/3 205/2/3
f 195/1/3 196/1/3 206/1/3
f 196/3/3 197/3/3 207/3/3
f 206/1/3 196/1/3 207/1/3
f 202/1/3 203/1/3 208/1/3
f 207/3/3 197/3/3 208/3/3
f 197/1/3 202/1/3 208/1/3
f 204/1/3 205/1/3 208/1/3
f 203/1/3 204/1/3 208/1/3
f 208/1/3 205/1/3 209/1/3
f 209/1/3 205/1/3 210/1/3
f 210/1/3 205/1/3 211/1/3
f 209/1/3 210/1/3 212/1/3
f 212/1/3 210/1/3 213/1/3
f 212/2/3 213/2/3 214/2/3
f 213/1/3 210/1/3 215/1/3
f 214/2/3 213/2/3 215/2/3
f 210/2/3 211/2/3 216/2/3
f 215/1/3 210/1/3 216/1/3
f 216/2/3 211/2/3 217/2/3
f 214/1/3 215/1/3 221/1/3
f 215/1/3 216/1/3 221/1/3
f 216/1/3 217/1/3 221/1/3
f 220/1/3 221/1/3 224/1/3
f 221/1/3 217/1/3 225/1/3
f 224/1/3 221/1/3 225/1/3
f 225/1/3 217/1/3 226/1/3
f 226/1/3 217/1/3 227/1/3
f 222/3/3 223/3/3 228/3/3
f 228/3/3 223/3/3 229/3/3
f 218/1/3 219/1/3 230/1/3
f 219/3/3 220/3/3 231/3/3
f 230/1/3 219/1/3 231/1/3
f 220/1/3 224/1/3 232/1/3
f 231/3/3 220/3/3 232/3/3
f 224/2/3 225/2/3 233/2/3
f 232/1/3 224/1/3 233/1/3
f 225/1/3 226/1/3 234/1/3
f 233/2/3 225/2/3 234/2/3
f 226/2/3 227/2/3 235/2/3
f 234/1/3 226/1/3 235/1/3
f 227/1/3 217/1/3 236/1/3
f 235/2/3 227/2/3 236/2/3
f 236/1/3 217/1/3 237/1/3
f 238/1/3 239/1/3 240/1/3
f 240/1/3 239/1/3 241/1/3
f 241/1/3 239/1/3 242/1/3
f 243/1/3 244/1/3 245/1/3
f 245/1/3 244/1/3 246/1/3
f 246/1/3 244/1/3 247/1/3
f 247/1/3 244/1/3 248/1/3
f 248/1/3 244/1/3 249/1/3
f 243/1/3 245/1/3 251/1/3
f 251/1/3 245/1/3 252/1/3
f 246/1/3 247/1/3 253/1/3
f 253/1/3 247/1/3 254/1/3
f 248/1/3 249/1/3 255/1/3
f 249/3/3 250/3/3 256/3/3
f 255/1/3 249/1/3 256/1/3
f 256/3/3 250/3/3 257/3/3
f 243/1/3 251/1/3 258/1/3
f 251/2/3 252/2/3 259/2/3
f 258/1/3 251/1/3 259/1/3
f 252/1/3 245/1/3 260/1/3
f 259/2/3 252/2/3 260/2/3
f 245/2/3 246/2/3 261/2/3
f 260/1/3 245/1/3 261/1/3
f 246/1/3 253/1/3 262/1/3
f 261/2/3 246/2/3 262/2/3
f 262/1/3 253/1/3 263/1/3
f 254/4/3 255/4/3 264/4/3
f 263/1/3 253/1/3 264/1/3
f 253/4/3 254/4/3 264/4/3
f 264/4/3 255/4/3 265/4/3
f 264/5/3 265/5/3 266/5/3
f 263/1/3 264/1/3 266/1/3
f 265/4/3 255/4/3 267/4/3
f 266/5/3 265/5/3 267/5/3
f 255/1/3 256/1/3 268/1/3
f 267/4/3 255/4/3 268/4/3
f 268/1/3 256/1/3 269/1/3
f 266/1/3 267/1/3 270/1/3
f 267/1/3 268/1/3 270/1/3
f 270/1/3 268/1/3 271/1/3
f 263/1/3 266/1/3 272/1/3
f 266/1/3 270/1/3 272/1/3
f 272/1/3 270/1/3 273/1/3
f 274/3/3 275/3/3 276/3/3
f 276/3/3 275/3/3 277/3/3
f 278/3/3 279/3/3 280/3/3
f 280/3/3 279/3/3 281/3/3
f 282/1/3 283/1/3 286/1/3
f 283/3/3 284/3/3 287/3/3
f 286/1/3 283/1/3 287/1/3
f 284/1/3 285/1/3 288/1/3
f 287/3/3 284/3/3 288/3/3
f 288/1/3 285/1/3 289/1/3
f 290/1/3 291/1/3 294/1/3
f 291/3/3 292/3/3 295/3/3
f 294/1/3 291/1/3 295/1/3
f 292/1/3 293/1/3 296/1/3
f 295/3/3 292/3/3 296/3/3
f 296/1/3 293/1/3 297/1/3
f 304/1/4 301/1/4 300/1/4
f 304/2/4 302/2/4 301/2/4
f 305/1/4 303/1/4 302/1/4
f 305/2/4 302/2/4 304/2/4
f 306/1/4 299/1/4 298/1/4
f 307/3/4 300/3/4 299/3/4
f 307/1/4 299/1/4 306/1/4
f 308/1/4 304/1/4 300/1/4
f 308/3/4 300/3/4 307/3/4
f 308/1/4 305/1/4 304/1/4
f 309/1/4 303/1/4 305/1/4
f 309/1/4 305/1/4 308/1/4
f 314/1/4 313/1/4 312/1/4
f 315/1/4 313/1/4 314/1/4
f 316/1/4 311/1/4 310/1/4
f 317/3/4 312/3/4 311/3/4
f 317/1/4 311/1/4 316/1/4
f 318/1/4 314/1/4 312/1/4
f 318/3/4 312/3/4 317/3/4
f 319/2/4 315/2/4 314/2/4
f 319/1/4 314/1/4 318/1/4
f 320/2/4 315/2/4 319/2/4
f 323/3/4 322/3/4 321/3/4
f 324/3/4 322/3/4 323/3/4
f 327/3/4 326/3/4 325/3/4
f 328/3/4 326/3/4 327/3/4
f 331/1/4 330/1/4 329/1/4
f 332/1/4 330/1/4 331/1/4
f 337/1/4 334/1/4 333/1/4
f 337/2/4 335/2/4 334/2/4
f 338/1/4 336/1/4 335/1/4
f 338/2/4 335/2/4 337/2/4
f 339/1/4 336/1/4 338/1/4
f 340/1/4 336/1/4 339/1/4
f 341/1/4 336/1/4 340/1/4
f 342/1/4 336/1/4 341/1/4
f 343/1/4 336/1/4 342/1/4
f 345/1/4 341/1/4 340/1/4
f 346/1/4 341/1/4 345/1/4
f 347/1/4 343/1/4 342/1/4
f 348/3/4 344/3/4 343/3/4
f 348/1/4 343/1/4 347/1/4
f 349/3/4 344/3/4 348/3/4
f 350/1/4 337/1/4 333/1/4
f 350/1/4 338/1/4 337/1/4
f 350/1/4 339/1/4 338/1/4
f 351/2/4 340/2/4 339/2/4
f 351/1/4 339/1/4 350/1/4
f 352/1/4 345/1/4 340/1/4
f 352/2/4 340/2/4 351/2/4
f 353/1/4 345/1/4 352/1/4
f 354/4/4 347/4/4 346/4/4
f 354/1/4 345/1/4 353/1/4
f 354/4/4 346/4/4 345/4/4
f 355/4/4 347/4/4 354/4/4
f 356/5/4 355/5/4 354/5/4
f 356/1/4 354/1/4 353/1/4
f 357/4/4 347/4/4 355/4/4
f 357/5/4 355/5/4 356/5/4
f 358/1/4 348/1/4 347/1/4
f 358/4/4 347/4/4 357/4/4
f 359/1/4 348/1/4 358/1/4
f 360/1/4 357/1/4 356/1/4
f 360/1/4 358/1/4 357/1/4
f 361/1/4 358/1/4 360/1/4
f 362/1/4 356/1/4 353/1/4
f 362/1/4 360/1/4 356/1/4
f 363/1/4 360/1/4 362/1/4
f 370/1/4 367/1/4 366/1/4
f 370/2/4 368/2/4 367/2/4
f 371/1/4 369/1/4 368/1/4
f 371/2/4 368/2/4 370/2/4
f 372/1/4 365/1/4 364/1/4
f 373/3/4 366/3/4 365/3/4
f 373/1/4 365/1/4 372/1/4
f 374/1/4 370/1/4 366/1/4
f 374/3/4 366/3/4 373/3/4
f 374/1/4 371/1/4 370/1/4
f 375/1/4 371/1/4 374/1/4
f 376/1/4 371/1/4 375/1/4
f 377/1/4 369/1/4 371/1/4
f 377/1/4 371/1/4 376/1/4
f 378/1/4 369/1/4 377/1/4
f 379/2/4 376/2/4 375/2/4
f 380/1/4 377/1/4 376/1/4
f 380/2/4 376/2/4 379/2/4
f 381/2/4 378/2/4 377/2/4
f 381/1/4 377/1/4 380/1/4
f 382/2/4 378/2/4 381/2/4
f 383/1/4 380/1/4 379/1/4
f 383/1/4 381/1/4 380/1/4
f 383/1/4 382/1/4 381/1/4
f 384/1/4 382/1/4 383/1/4
f 390/1/4 383/1/4 379/1/4
f 393/1/4 390/1/4 389/1/4
f 394/1/4 383/1/4 390/1/4
f 394/1/4 390/1/4 393/1/4
f 395/2/4 384/2/4 383/2/4
f 395/1/4 383/1/4 394/1/4
f 396/2/4 384/2/4 395/2/4
f 397/3/4 392/3/4 391/3/4
f 398/3/4 392/3/4 397/3/4
f 399/1/4 386/1/4 385/1/4
f 400/3/4 387/3/4 386/3/4
f 400/1/4 386/1/4 399/1/4
f 401/1/4 388/1/4 387/1/4
f 401/3/4 387/3/4 400/3/4
f 402/2/4 389/2/4 388/2/4
f 402/1/4 388/1/4 401/1/4
f 403/1/4 393/1/4 389/1/4
f 403/2/4 389/2/4 402/2/4
f 404/2/4 394/2/4 393/2/4
f 404/1/4 393/1/4 403/1/4
f 405/1/4 396/1/4 395/1/4
f 405/2/4 394/2/4 404/2/4
f 405/1/4 395/1/4 394/1/4
f 406/1/4 396/1/4 405/1/4
f 407/1/5 408/1/5 411/1/5
f 411/1/5 408/1/5 412/1/5
f 409/1/5 410/1/5 413/1/5
f 413/1/5 410/1/5 414/1/5
f 415/1/5 416/1/5 419/1/5
f 419/1/5 416/1/5 420/1/5
f 417/1/5 418/1/5 421/1/5
f 421/1/5 418/1/5 422/1/5
f 423/1/5 424/1/5 427/1/5
f 424/2/5 425/2/5 427/2/5
f 425/1/5 426/1/5 428/1/5
f 427/2/5 425/2/5 428/2/5
f 423/1/5 427/1/5 430/1/5
f 427/1/5 428/1/5 430/1/5
f 428/1/5 426/1/5 431/1/5
f 430/1/5 428/1/5 431/1/5
f 429/1/5 430/1/5 434/1/5
f 432/1/5 433/1/5 434/1/5
f 431/1/5 432/1/5 434/1/5
f 430/1/5 431/1/5 434/1/5
f 434/1/5 433/1/5 435/1/5
f 435/1/5 433/1/5 436/1/5
f 436/1/5 433/1/5 437/1/5
f 435/1/5 436/1/5 438/1/5
f 438/1/5 436/1/5 439/1/5
f 438/2/5 439/2/5 440/2/5
f 439/1/5 436/1/5 441/1/5
f 440/2/5 439/2/5 441/2/5
f 441/1/5 436/1/5 442/1/5
f 443/1/5 444/1/5 445/1/5
f 445/1/5 444/1/5 446/1/5
f 447/3/5 448/3/5 449/3/5
f 449/3/5 448/3/5 450/3/5
f 451/1/5 452/1/5 453/1/5
f 453/1/5 452/1/5 454/1/5
f 455/3/5 456/3/5 457/3/5
f 457/3/5 456/3/5 458/3/5
f 457/1/5 458/1/5 459/1/5
f 459/1/5 458/1/5 460/1/5
f 461/1/5 462/1/5 463/1/5
f 463/1/5 462/1/5 464/1/5
f 463/3/5 464/3/5 465/3/5
f 465/3/5 464/3/5 466/3/5
f 470/1/6 468/1/6 467/1/6
f 471/1/6 468/1/6 470/1/6
f 472/3/6 470/3/6 469/3/6
f 473/1/6 471/1/6 470/1/6
f 473/3/6 470/3/6 472/3/6
f 474/1/6 471/1/6 473/1/6
f 475/1/6 471/1/6 474/1/6
f 481/2/6 477/2/6 476/2/6
f 482/1/6 478/1/6 477/1/6
f 482/2/6 477/2/6 481/2/6
f 483/2/6 479/2/6 478/2/6
f 483/1/6 478/1/6 482/1/6
f 484/1/6 480/1/6 479/1/6
f 484/2/6 479/2/6 483/2/6
f 485/1/6 480/1/6 484/1/6
f 486/1/6 480/1/6 485/1/6
f 487/1/6 483/1/6 482/1/6
f 487/1/6 482/1/6 481/1/6
f 487/1/6 485/1/6 484/1/6
f 487/1/6 484/1/6 483/1/6
f 488/1/6 485/1/6 487/1/6
f 489/2/6 488/2/6 487/2/6
f 490/1/6 485/1/6 488/1/6
f 490/2/6 488/2/6 489/2/6
f 491/1/6 485/1/6 490/1/6
f 493/1/6 490/1/6 489/1/6
f 493/1/6 492/1/6 491/1/6
f 493/1/6 491/1/6 490/1/6
f 494/1/6 492/1/6 493/1/6
f 495/1/6 492/1/6 494/1/6
f 496/1/6 492/1/6 495/1/6
f 497/1/6 493/1/6 489/1/6
f 498/2/6 494/2/6 493/2/6
f 498/1/6 493/1/6 497/1/6
f 499/1/6 495/1/6 494/1/6
f 499/2/6 494/2/6 498/2/6
f 500/2/6 496/2/6 495/2/6
f 500/1/6 495/1/6 499/1/6
f 501/1/6 492/1/6 496/1/6
f 501/2/6 496/2/6 500/2/6
f 502/1/6 492/1/6 501/1/6
f 505/1/6 504/1/6 503/1/6
f 506/1/6 504/1/6 505/1/6
f 509/3/6 508/3/6 507/3/6
f 510/3/6 508/3/6 509/3/6
f 511/1/6 510/1/6 509/1/6
f 512/1/6 510/1/6 511/1/6
f 517/1/6 514/1/6 513/1/6
f 518/1/6 514/1/6 517/1/6
f 519/1/6 516/1/6 515/1/6
f 520/1/6 516/1/6 519/1/6
f 521/3/6 520/3/6 519/3/6
f 522/3/6 520/3/6 521/3/6
f 527/1/6 524/1/6 523/1/6
f 528/1/6 526/1/6 525/1/6
f 529/1/6 527/1/6 523/1/6
f 529/1/6 528/1/6 527/1/6
f 530/1/6 526/1/6 528/1/6
f 530/1/6 528/1/6 529/1/6
f 531/1/6 529/1/6 523/1/6
f 532/1/6 529/1/6 531/1/6
f 533/1/6 526/1/6 530/1/6
f 534/1/6 526/1/6 533/1/6
f 537/3/6 536/3/6 535/3/6
f 538/3/6 536/3/6 537/3/6
f 541/3/6 540/3/6 539/3/6
f 542/3/6 540/3/6 541/3/6
