# MagicaVoxel @ Ephtracy

# group
o gallina

# material
mtllib farm-0-gallina.mtl
usemtl palette

# normals
vn -1 0 0
vn 1 0 0
vn 0 0 1
vn 0 0 -1
vn 0 -1 0
vn 0 1 0

# texcoords
vt 0.720703 0.5
vt 0.724609 0.5
vt 0.755859 0.5
vt 0.845703 0.5

# verts
v 2.3 0.3 1.4
v 2.3 0.3 1.1
v 2.3 0.5 1.4
v 2.3 0.5 1.1
v 2.4 0.1 1.4
v 2.4 0.1 1.3
v 2.4 0.1 1.2
v 2.4 0.1 1.1
v 2.4 0.3 1.4
v 2.4 0.3 1.3
v 2.4 0.3 1.2
v 2.4 0.3 1.1
v 2.4 0.4 1.5
v 2.4 0.4 1.4
v 2.4 0.4 1.1
v 2.4 0.4 1
v 2.4 0.5 1.5
v 2.4 0.5 1.4
v 2.4 0.5 1.1
v 2.4 0.5 1
v 2.4 0.8 1.4
v 2.4 0.8 1.1
v 2.5 0.8 1.3
v 2.5 0.8 1.2
v 2.5 0.9 1.3
v 2.5 0.9 1.2
v 2.5 0.2 1.4
v 2.5 0.2 1.3
v 2.5 0.2 1.2
v 2.5 0.2 1.1
v 2.5 0.3 1.4
v 2.5 0.3 1.3
v 2.5 0.3 1.2
v 2.5 0.3 1.1
v 2.6 0.1 1.4
v 2.6 0.1 1.3
v 2.6 0.1 1.2
v 2.6 0.1 1.1
v 2.6 0.2 1.4
v 2.6 0.2 1.3
v 2.6 0.2 1.2
v 2.6 0.2 1.1
v 2.6 0.4 1.5
v 2.6 0.4 1.4
v 2.6 0.4 1.1
v 2.6 0.4 1
v 2.6 0.5 1.5
v 2.6 0.5 1.4
v 2.6 0.5 1.1
v 2.6 0.5 1
v 2.7 0.3 1.4
v 2.7 0.3 1.1
v 2.7 0.6 1.3
v 2.7 0.6 1.2
v 2.7 0.7 1.3
v 2.7 0.7 1.2
v 2.7 0.8 1.4
v 2.7 0.8 1.3
v 2.7 0.8 1.2
v 2.7 0.8 1.1
v 2.7 0.9 1.3
v 2.7 0.9 1.2
v 2.8 0.6 1.3
v 2.8 0.6 1.2
v 2.8 0.7 1.3
v 2.8 0.7 1.2
v 2.4 0.4 1.5
v 2.4 0.5 1.5
v 2.6 0.4 1.5
v 2.6 0.5 1.5
v 2.3 0.3 1.4
v 2.3 0.5 1.4
v 2.4 0.1 1.4
v 2.4 0.3 1.4
v 2.4 0.4 1.4
v 2.4 0.5 1.4
v 2.4 0.8 1.4
v 2.5 0.2 1.4
v 2.5 0.3 1.4
v 2.5 0.6 1.4
v 2.5 0.7 1.4
v 2.6 0.1 1.4
v 2.6 0.2 1.4
v 2.6 0.4 1.4
v 2.6 0.5 1.4
v 2.6 0.6 1.4
v 2.6 0.7 1.4
v 2.7 0.3 1.4
v 2.7 0.8 1.4
v 2.5 0.8 1.3
v 2.5 0.9 1.3
v 2.7 0.6 1.3
v 2.7 0.7 1.3
v 2.7 0.8 1.3
v 2.7 0.9 1.3
v 2.8 0.6 1.3
v 2.8 0.7 1.3
v 2.4 0.1 1.2
v 2.4 0.3 1.2
v 2.5 0.2 1.2
v 2.5 0.3 1.2
v 2.6 0.1 1.2
v 2.6 0.2 1.2
v 2.4 0.1 1.3
v 2.4 0.3 1.3
v 2.5 0.2 1.3
v 2.5 0.3 1.3
v 2.6 0.1 1.3
v 2.6 0.2 1.3
v 2.5 0.8 1.2
v 2.5 0.9 1.2
v 2.7 0.6 1.2
v 2.7 0.7 1.2
v 2.7 0.8 1.2
v 2.7 0.9 1.2
v 2.8 0.6 1.2
v 2.8 0.7 1.2
v 2.3 0.3 1.1
v 2.3 0.5 1.1
v 2.4 0.1 1.1
v 2.4 0.3 1.1
v 2.4 0.4 1.1
v 2.4 0.5 1.1
v 2.4 0.8 1.1
v 2.5 0.2 1.1
v 2.5 0.3 1.1
v 2.5 0.6 1.1
v 2.5 0.7 1.1
v 2.6 0.1 1.1
v 2.6 0.2 1.1
v 2.6 0.4 1.1
v 2.6 0.5 1.1
v 2.6 0.6 1.1
v 2.6 0.7 1.1
v 2.7 0.3 1.1
v 2.7 0.8 1.1
v 2.4 0.4 1
v 2.4 0.5 1
v 2.6 0.4 1
v 2.6 0.5 1
v 2.4 0.1 1.4
v 2.6 0.1 1.4
v 2.4 0.1 1.3
v 2.6 0.1 1.3
v 2.4 0.1 1.2
v 2.6 0.1 1.2
v 2.4 0.1 1.1
v 2.6 0.1 1.1
v 2.3 0.3 1.4
v 2.4 0.3 1.4
v 2.5 0.3 1.4
v 2.7 0.3 1.4
v 2.4 0.3 1.3
v 2.5 0.3 1.3
v 2.4 0.3 1.2
v 2.5 0.3 1.2
v 2.3 0.3 1.1
v 2.4 0.3 1.1
v 2.5 0.3 1.1
v 2.7 0.3 1.1
v 2.4 0.4 1.5
v 2.6 0.4 1.5
v 2.4 0.4 1.4
v 2.6 0.4 1.4
v 2.4 0.4 1.1
v 2.6 0.4 1.1
v 2.4 0.4 1
v 2.6 0.4 1
v 2.7 0.6 1.3
v 2.8 0.6 1.3
v 2.7 0.6 1.2
v 2.8 0.6 1.2
v 2.5 0.2 1.4
v 2.6 0.2 1.4
v 2.5 0.2 1.3
v 2.6 0.2 1.3
v 2.5 0.2 1.2
v 2.6 0.2 1.2
v 2.5 0.2 1.1
v 2.6 0.2 1.1
v 2.4 0.5 1.5
v 2.6 0.5 1.5
v 2.3 0.5 1.4
v 2.4 0.5 1.4
v 2.6 0.5 1.4
v 2.3 0.5 1.1
v 2.4 0.5 1.1
v 2.6 0.5 1.1
v 2.4 0.5 1
v 2.6 0.5 1
v 2.7 0.7 1.3
v 2.8 0.7 1.3
v 2.7 0.7 1.2
v 2.8 0.7 1.2
v 2.4 0.8 1.4
v 2.7 0.8 1.4
v 2.5 0.8 1.3
v 2.7 0.8 1.3
v 2.5 0.8 1.2
v 2.7 0.8 1.2
v 2.4 0.8 1.1
v 2.7 0.8 1.1
v 2.5 0.9 1.3
v 2.7 0.9 1.3
v 2.5 0.9 1.2
v 2.7 0.9 1.2

# faces
f 3/4/1 2/4/1 1/4/1
f 4/4/1 2/4/1 3/4/1
f 9/1/1 6/1/1 5/1/1
f 10/1/1 6/1/1 9/1/1
f 11/1/1 8/1/1 7/1/1
f 12/1/1 8/1/1 11/1/1
f 17/4/1 14/4/1 13/4/1
f 18/4/1 14/4/1 17/4/1
f 19/4/1 16/4/1 15/4/1
f 20/4/1 16/4/1 19/4/1
f 21/4/1 19/4/1 18/4/1
f 22/4/1 19/4/1 21/4/1
f 25/2/1 24/2/1 23/2/1
f 26/2/1 24/2/1 25/2/1
f 27/1/2 28/1/2 31/1/2
f 31/1/2 28/1/2 32/1/2
f 29/1/2 30/1/2 33/1/2
f 33/1/2 30/1/2 34/1/2
f 35/1/2 36/1/2 39/1/2
f 39/1/2 36/1/2 40/1/2
f 37/1/2 38/1/2 41/1/2
f 41/1/2 38/1/2 42/1/2
f 43/4/2 44/4/2 47/4/2
f 47/4/2 44/4/2 48/4/2
f 45/4/2 46/4/2 49/4/2
f 49/4/2 46/4/2 50/4/2
f 51/4/2 52/4/2 53/4/2
f 53/4/2 52/4/2 54/4/2
f 51/4/2 53/4/2 55/4/2
f 54/4/2 52/4/2 56/4/2
f 51/4/2 55/4/2 57/4/2
f 55/4/2 56/4/2 57/4/2
f 57/4/2 56/4/2 58/4/2
f 56/4/2 52/4/2 59/4/2
f 58/4/2 56/4/2 59/4/2
f 59/4/2 52/4/2 60/4/2
f 58/2/2 59/2/2 61/2/2
f 61/2/2 59/2/2 62/2/2
f 63/1/2 64/1/2 65/1/2
f 65/1/2 64/1/2 66/1/2
f 69/4/3 68/4/3 67/4/3
f 70/4/3 68/4/3 69/4/3
f 74/4/3 72/4/3 71/4/3
f 75/4/3 72/4/3 74/4/3
f 76/4/3 72/4/3 75/4/3
f 78/1/3 74/1/3 73/1/3
f 79/4/3 75/4/3 74/4/3
f 79/1/3 74/1/3 78/1/3
f 80/4/3 77/4/3 76/4/3
f 81/4/3 77/4/3 80/4/3
f 82/1/3 78/1/3 73/1/3
f 83/1/3 78/1/3 82/1/3
f 84/4/3 75/4/3 79/4/3
f 85/4/3 80/4/3 76/4/3
f 86/3/3 81/3/3 80/3/3
f 86/4/3 80/4/3 85/4/3
f 87/4/3 77/4/3 81/4/3
f 87/3/3 81/3/3 86/3/3
f 88/4/3 86/4/3 85/4/3
f 88/4/3 87/4/3 86/4/3
f 88/4/3 85/4/3 84/4/3
f 88/4/3 84/4/3 79/4/3
f 89/4/3 77/4/3 87/4/3
f 89/4/3 87/4/3 88/4/3
f 94/2/3 91/2/3 90/2/3
f 95/2/3 91/2/3 94/2/3
f 96/1/3 93/1/3 92/1/3
f 97/1/3 93/1/3 96/1/3
f 100/1/3 99/1/3 98/1/3
f 101/1/3 99/1/3 100/1/3
f 102/1/3 100/1/3 98/1/3
f 103/1/3 100/1/3 102/1/3
f 104/1/4 105/1/4 106/1/4
f 106/1/4 105/1/4 107/1/4
f 104/1/4 106/1/4 108/1/4
f 108/1/4 106/1/4 109/1/4
f 110/2/4 111/2/4 114/2/4
f 114/2/4 111/2/4 115/2/4
f 112/1/4 113/1/4 116/1/4
f 116/1/4 113/1/4 117/1/4
f 118/4/4 119/4/4 121/4/4
f 121/4/4 119/4/4 122/4/4
f 122/4/4 119/4/4 123/4/4
f 120/1/4 121/1/4 125/1/4
f 121/4/4 122/4/4 126/4/4
f 125/1/4 121/1/4 126/1/4
f 123/4/4 124/4/4 127/4/4
f 127/4/4 124/4/4 128/4/4
f 120/1/4 125/1/4 129/1/4
f 129/1/4 125/1/4 130/1/4
f 126/4/4 122/4/4 131/4/4
f 123/4/4 127/4/4 132/4/4
f 127/3/4 128/3/4 133/3/4
f 132/4/4 127/4/4 133/4/4
f 128/4/4 124/4/4 134/4/4
f 133/3/4 128/3/4 134/3/4
f 132/4/4 133/4/4 135/4/4
f 133/4/4 134/4/4 135/4/4
f 131/4/4 132/4/4 135/4/4
f 126/4/4 131/4/4 135/4/4
f 134/4/4 124/4/4 136/4/4
f 135/4/4 134/4/4 136/4/4
f 137/4/4 138/4/4 139/4/4
f 139/4/4 138/4/4 140/4/4
f 143/1/5 142/1/5 141/1/5
f 144/1/5 142/1/5 143/1/5
f 147/1/5 146/1/5 145/1/5
f 148/1/5 146/1/5 147/1/5
f 153/4/5 150/4/5 149/4/5
f 154/4/5 152/4/5 151/4/5
f 155/4/5 153/4/5 149/4/5
f 155/4/5 154/4/5 153/4/5
f 156/4/5 152/4/5 154/4/5
f 156/4/5 154/4/5 155/4/5
f 157/4/5 155/4/5 149/4/5
f 158/4/5 155/4/5 157/4/5
f 159/4/5 152/4/5 156/4/5
f 160/4/5 152/4/5 159/4/5
f 163/4/5 162/4/5 161/4/5
f 164/4/5 162/4/5 163/4/5
f 167/4/5 166/4/5 165/4/5
f 168/4/5 166/4/5 167/4/5
f 171/1/5 170/1/5 169/1/5
f 172/1/5 170/1/5 171/1/5
f 173/1/6 174/1/6 175/1/6
f 175/1/6 174/1/6 176/1/6
f 177/1/6 178/1/6 179/1/6
f 179/1/6 178/1/6 180/1/6
f 181/4/6 182/4/6 184/4/6
f 184/4/6 182/4/6 185/4/6
f 183/4/6 184/4/6 186/4/6
f 186/4/6 184/4/6 187/4/6
f 187/4/6 188/4/6 189/4/6
f 189/4/6 188/4/6 190/4/6
f 191/1/6 192/1/6 193/1/6
f 193/1/6 192/1/6 194/1/6
f 195/4/6 196/4/6 197/4/6
f 197/4/6 196/4/6 198/4/6
f 195/4/6 197/4/6 199/4/6
f 195/4/6 199/4/6 201/4/6
f 199/4/6 200/4/6 201/4/6
f 201/4/6 200/4/6 202/4/6
f 203/2/6 204/2/6 205/2/6
f 205/2/6 204/2/6 206/2/6
